<?xml version="1.0" standalone="no"?>
<!DOCTYPE svg PUBLIC "-//W3C//DTD SVG 20010904//EN"
 "http://www.w3.org/TR/2001/REC-SVG-20010904/DTD/svg10.dtd">
<svg version="1.0" xmlns="http://www.w3.org/2000/svg"
 width="2048.000000pt" height="2048.000000pt" viewBox="0 0 2048.000000 2048.000000"
 preserveAspectRatio="xMidYMid meet">
<metadata>
Created by potrace 1.14, written by Peter Selinger 2001-2017
</metadata>
<g transform="translate(0.000000,2048.000000) scale(0.100000,-0.100000)"
fill="#000000" stroke="none">
<path d="M0 20065 l0 -415 60 0 60 0 0 415 0 415 -60 0 -60 0 0 -415z"/>
<path d="M170 20065 l0 -415 595 0 595 0 0 415 0 415 -595 0 -595 0 0 -415z"/>
<path d="M1410 20065 l0 -415 615 0 615 0 0 415 0 415 -615 0 -615 0 0 -415z"/>
<path d="M2690 20065 l0 -415 595 0 595 0 0 415 0 415 -595 0 -595 0 0 -415z"/>
<path d="M3930 20065 l0 -415 615 0 615 0 0 415 0 415 -615 0 -615 0 0 -415z"/>
<path d="M5210 20065 l0 -415 595 0 595 0 0 415 0 415 -595 0 -595 0 0 -415z"/>
<path d="M6450 20065 l0 -415 615 0 615 0 0 415 0 415 -615 0 -615 0 0 -415z"/>
<path d="M7730 20065 l0 -415 625 0 625 0 0 415 0 415 -625 0 -625 0 0 -415z"/>
<path d="M9030 20065 l0 -415 615 0 615 0 0 415 0 415 -615 0 -615 0 0 -415z"/>
<path d="M10309 20473 c-1 -15 3 -818 4 -819 1 -1 269 -5 595 -9 l592 -7 0
421 0 421 -595 0 c-327 0 -595 -3 -596 -7z"/>
<path d="M11550 20058 l0 -421 308 6 c169 4 445 7 615 7 l307 0 0 415 0 415
-615 0 -615 0 0 -422z"/>
<path d="M12820 20065 l0 -415 600 0 600 0 0 415 0 415 -600 0 -600 0 0 -415z"/>
<path d="M14070 20065 l0 -415 615 0 615 0 0 415 0 415 -615 0 -615 0 0 -415z"/>
<path d="M15340 20065 l0 -415 600 0 600 0 0 415 0 415 -600 0 -600 0 0 -415z"/>
<path d="M16590 20065 l0 -415 615 0 615 0 0 415 0 415 -615 0 -615 0 0 -415z"/>
<path d="M17860 20065 l0 -415 600 0 600 0 0 415 0 415 -600 0 -600 0 0 -415z"/>
<path d="M19110 20066 c0 -368 2 -415 16 -420 9 -3 285 -6 615 -6 l599 0 0
420 0 420 -615 0 -615 0 0 -414z"/>
<path d="M20380 20060 l0 -420 50 0 50 0 0 420 0 420 -50 0 -50 0 0 -420z"/>
<path d="M0 19015 l0 -585 60 0 60 0 0 585 0 585 -60 0 -60 0 0 -585z"/>
<path d="M170 19015 l0 -585 595 0 595 0 0 585 0 585 -595 0 -595 0 0 -585z"/>
<path d="M1410 19015 l0 -585 615 0 615 0 0 585 0 585 -615 0 -615 0 0 -585z"/>
<path d="M2690 19015 l0 -585 595 0 595 0 0 585 0 585 -595 0 -595 0 0 -585z"/>
<path d="M3930 19015 l0 -585 615 0 615 0 0 585 0 585 -615 0 -615 0 0 -585z"/>
<path d="M5210 19015 l0 -585 595 0 595 0 0 585 0 585 -595 0 -595 0 0 -585z"/>
<path d="M6450 19015 l0 -585 615 0 615 0 0 585 0 585 -615 0 -615 0 0 -585z"/>
<path d="M7730 19015 l0 -585 625 0 625 0 0 585 0 585 -625 0 -625 0 0 -585z"/>
<path d="M9030 19015 l0 -585 615 0 615 0 0 585 0 585 -615 0 -615 0 0 -585z"/>
<path d="M10310 19308 c0 -161 -3 -425 -7 -585 l-6 -293 32 0 c17 0 31 -4 31
-8 0 -10 -45 -32 -65 -32 -8 0 -15 -5 -15 -11 0 -7 -5 -8 -12 -3 -7 5 -288 8
-625 6 l-613 -2 -1 -498 c-1 -273 -4 -508 -8 -522 -4 -14 -12 -25 -18 -25 -10
0 -20 430 -23 963 l0 82 -625 0 -625 0 0 -609 0 -609 68 -5 c37 -3 269 -4 515
-3 254 2 450 -1 453 -6 3 -5 0 -15 -6 -23 -11 -13 -88 -15 -521 -15 l-509 0 0
-630 0 -630 39 0 c34 0 38 -3 34 -20 -4 -15 -14 -20 -36 -20 -22 0 -38 -9 -58
-32 l-28 -33 -1 33 0 32 -615 0 -615 0 0 -585 0 -585 95 0 c86 0 94 -2 88 -17
-10 -29 -24 -33 -105 -33 l-78 0 0 -133 c0 -104 -3 -137 -16 -155 -8 -12 -19
-22 -25 -22 -5 0 -9 65 -9 155 l0 155 -595 0 -595 0 0 -615 0 -615 380 0 c378
0 381 0 370 -20 -10 -19 -21 -20 -380 -20 l-370 0 0 -37 c0 -21 -3 -305 -7
-630 l-6 -593 306 0 307 0 0 -25 0 -25 -306 0 -307 0 6 -157 c4 -87 7 -350 7
-585 l0 -428 385 0 c383 0 386 0 375 -20 -10 -19 -21 -20 -385 -20 l-375 0 0
-615 0 -615 473 0 c446 0 475 -1 490 -18 10 -10 17 -22 17 -25 0 -4 -220 -7
-490 -7 l-490 0 0 -625 0 -625 595 0 595 0 0 523 c0 288 3 527 6 530 4 3 15 2
25 -4 18 -9 19 -32 19 -529 l0 -520 338 -2 c185 -1 346 -2 357 -3 11 -1 45 -3
75 -4 l55 -2 -35 -19 c-33 -18 -60 -19 -412 -20 l-378 0 0 -206 0 -205 -22 3
c-23 3 -23 4 -26 205 l-2 203 -595 0 -595 0 0 -60 c0 -57 -1 -60 -25 -60 -24
0 -25 3 -25 60 l0 60 -238 0 c-131 0 -263 4 -293 10 -30 5 -71 12 -92 15 -20
3 -37 10 -37 15 0 6 127 10 330 10 l330 0 0 625 0 625 -615 0 -615 0 0 -554
c0 -585 1 -566 -41 -566 -5 0 -9 227 -9 560 l0 560 -595 0 -595 0 0 -625 0
-625 308 -1 c169 0 325 -3 346 -7 l40 -7 -27 -18 c-24 -15 -59 -17 -347 -17
l-320 0 0 -585 0 -585 379 0 c209 0 386 -3 395 -6 23 -9 19 -31 -7 -38 -12 -3
-190 -6 -394 -6 l-373 0 0 -616 0 -617 576 4 c566 4 576 4 590 -16 15 -20 13
-20 -576 -23 l-590 -2 0 -630 0 -630 595 0 595 0 1 583 c0 549 7 714 22 554 3
-37 11 -76 17 -86 6 -13 10 -198 10 -535 l0 -516 483 0 c462 0 483 -1 494 -19
7 -10 9 -22 6 -25 -4 -3 -226 -6 -495 -6 l-488 0 0 -580 0 -580 328 0 c180 0
456 -3 614 -7 l288 -6 2 279 3 279 19 -55 c17 -47 20 -89 24 -278 l3 -222 109
0 c99 0 110 -2 120 -20 10 -19 8 -20 -110 -20 l-120 0 0 -615 0 -615 595 0
595 0 0 108 c0 60 3 112 6 115 4 3 15 2 25 -4 17 -8 19 -22 19 -114 l0 -105
615 0 615 0 0 99 c0 81 3 100 16 105 29 11 34 -4 34 -105 l0 -99 625 0 625 0
0 323 c0 178 3 326 6 329 3 3 14 4 25 1 18 -5 19 -17 19 -329 l0 -324 149 0
c139 0 149 -1 154 -19 3 -11 2 -22 -1 -25 -3 -3 -72 -6 -154 -6 l-148 0 0
-625 0 -625 615 0 615 0 0 260 c0 253 1 260 20 260 19 0 20 -7 20 -260 l0
-260 600 0 600 0 0 444 c0 244 3 451 6 460 3 9 15 16 25 16 18 0 19 -15 19
-459 l0 -459 118 -4 c64 -3 340 -4 612 -4 l495 1 3 628 2 627 -370 0 c-203 0
-370 4 -370 8 0 4 13 15 29 25 26 15 66 17 370 17 l341 0 0 294 c0 265 2 294
17 300 9 4 20 1 25 -6 4 -7 8 -142 8 -300 l0 -288 595 0 595 0 0 525 c0 312 4
525 9 525 5 0 16 3 25 6 14 6 16 -45 16 -525 l0 -531 615 0 615 0 0 615 0 615
-517 0 -518 1 28 24 28 25 490 0 489 0 0 244 c0 213 2 245 16 250 9 3 18 6 20
6 2 0 4 -112 4 -250 l0 -250 600 0 600 0 0 580 0 580 -80 0 c-44 0 -80 3 -80
6 0 3 5 14 10 25 9 16 22 19 80 19 l69 0 3 203 c3 183 5 206 23 232 l20 30 3
-232 2 -233 615 0 615 0 0 630 0 630 -604 0 c-589 0 -604 0 -609 19 -3 12 1
22 10 25 8 3 282 6 609 6 l594 0 0 610 0 610 -615 0 -615 0 0 -582 c-1 -454
-3 -579 -12 -563 -25 41 -31 152 -35 642 l-4 503 -599 0 -599 0 -3 -102 c-3
-89 -5 -103 -20 -106 -16 -3 -18 7 -18 102 l0 105 -86 3 c-77 3 -88 6 -102 25
l-14 23 101 0 101 0 0 148 c0 142 6 172 32 172 4 0 8 -72 8 -160 l0 -160 600
0 600 0 0 585 0 585 -360 0 c-215 0 -360 4 -360 9 0 5 7 17 16 25 13 14 60 16
360 16 l344 0 0 625 0 625 -382 2 -383 3 -3 23 -3 22 385 0 386 0 0 615 0 615
-600 0 -600 0 -1 -377 c0 -224 -4 -369 -9 -357 -5 12 -13 25 -19 29 -8 4 -11
118 -11 356 l0 349 -615 0 -615 0 0 -120 0 -120 -26 0 -26 0 4 88 c2 70 8 98
29 137 l25 50 612 3 612 2 0 585 0 585 -409 0 -409 0 -16 25 -16 25 425 0 425
0 0 630 0 630 -615 0 -615 0 0 -150 c0 -84 -4 -150 -9 -150 -39 0 -41 9 -41
156 l0 144 -99 0 c-90 0 -99 2 -104 20 -5 19 0 20 99 20 l104 0 0 615 0 615
-333 0 c-311 0 -335 1 -350 18 -10 10 -17 22 -17 25 0 4 157 7 350 7 l350 0 2
518 3 517 23 3 22 3 0 -520 0 -521 615 0 615 0 0 585 0 585 -322 1 -323 0 55
20 c48 18 89 21 323 26 l267 6 0 76 c0 65 3 78 20 89 19 12 20 10 20 -77 l0
-89 173 -4 c94 -2 364 -5 600 -6 l427 -3 0 440 c0 386 2 441 16 455 8 9 20 16
25 16 5 0 9 -182 9 -455 l0 -455 615 0 615 0 0 630 0 630 -410 0 c-225 0 -410
4 -410 8 0 5 8 16 18 25 17 15 60 17 410 17 l392 0 0 610 0 610 -34 0 c-38 0
-49 10 -40 34 4 10 18 16 40 16 l34 0 0 585 0 585 -615 0 -615 0 0 -368 c0
-203 -3 -372 -6 -375 -4 -3 -15 -2 -25 4 -18 9 -19 28 -19 374 l0 365 -600 0
-600 0 0 -419 c0 -373 -2 -420 -16 -425 -9 -3 -18 -6 -20 -6 -2 0 -4 191 -4
425 l0 425 -615 0 -615 0 0 -585 0 -585 111 0 112 0 -26 -20 c-21 -16 -40 -20
-111 -20 l-86 0 0 -27 c-1 -18 -10 -35 -25 -46 l-25 -18 0 46 c0 45 0 45 -35
45 -28 0 -35 4 -35 20 0 16 7 20 35 20 l35 0 0 585 0 585 -600 0 -600 0 0 -29
c0 -17 -6 -31 -16 -35 -24 -9 -24 -9 -24 29 l0 35 -615 0 -615 0 0 -254 c0
-219 -2 -255 -16 -267 -13 -10 -17 -10 -25 2 -5 8 -9 128 -9 267 l0 252 -595
0 -595 0 0 -292z m3417 -147 c64 -2 108 -80 118 -211 14 -171 -4 -498 -30
-550 -7 -14 -16 -41 -19 -60 -4 -19 -24 -69 -44 -111 -33 -68 -43 -79 -92
-106 -30 -17 -72 -36 -93 -43 -20 -6 -62 -31 -91 -56 -30 -24 -62 -44 -71 -44
-10 0 -39 -16 -65 -35 -26 -19 -52 -35 -56 -35 -5 0 -19 -10 -30 -23 -12 -12
-44 -30 -71 -39 -30 -11 -54 -27 -62 -41 -7 -13 -37 -34 -69 -48 -31 -13 -76
-39 -101 -58 -25 -19 -74 -47 -109 -63 -42 -19 -69 -39 -80 -58 -9 -17 -25
-30 -35 -30 -9 0 -31 -14 -49 -30 -17 -17 -43 -33 -57 -37 -14 -3 -39 -18 -54
-34 -16 -15 -37 -31 -47 -34 -11 -3 -22 -14 -25 -25 -3 -10 -18 -21 -32 -25
-15 -3 -38 -18 -52 -32 -14 -14 -38 -31 -53 -39 -16 -8 -28 -21 -28 -29 0 -8
-11 -20 -24 -27 -57 -32 -106 -69 -117 -90 -15 -30 -49 -57 -72 -58 -10 0 -26
-13 -35 -30 -9 -16 -29 -35 -44 -41 -15 -6 -30 -19 -33 -29 -3 -9 -20 -28 -37
-41 -18 -13 -39 -31 -48 -40 -9 -8 -24 -18 -33 -22 -10 -4 -22 -17 -28 -29 -5
-13 -32 -39 -59 -58 -27 -19 -49 -39 -50 -44 0 -5 -22 -30 -49 -55 -26 -25
-51 -56 -55 -68 -4 -12 -15 -24 -24 -27 -21 -7 -142 -138 -182 -198 -16 -23
-38 -54 -50 -68 -39 -48 -121 -145 -134 -160 -7 -8 -19 -26 -26 -40 -7 -14
-19 -32 -26 -40 -51 -58 -74 -90 -74 -107 0 -10 -15 -41 -33 -68 -58 -89 -79
-136 -72 -164 9 -36 34 -61 61 -61 32 0 67 53 136 210 8 19 42 67 74 107 33
39 70 88 84 108 14 20 46 59 72 86 26 27 55 63 64 81 9 18 32 46 50 61 19 16
34 33 34 39 0 18 50 78 65 78 8 0 20 10 26 23 22 41 99 125 155 167 29 24 54
48 54 54 0 12 54 66 66 66 4 0 41 34 82 76 41 42 97 90 124 106 26 16 54 38
61 47 6 10 20 20 30 24 9 4 21 17 26 29 12 30 60 74 91 83 14 4 43 25 65 47
22 21 60 49 83 61 24 12 53 34 64 49 10 16 27 28 36 28 9 0 25 9 37 20 36 37
113 90 129 90 9 0 33 17 54 38 20 20 51 44 67 52 17 8 48 28 70 46 22 17 60
41 85 54 25 13 66 34 92 47 26 13 52 32 58 43 6 11 20 20 30 20 11 0 25 9 32
20 7 11 22 20 33 20 11 0 44 17 74 38 57 39 58 40 111 67 19 10 51 31 71 47
20 15 43 28 51 28 8 0 23 9 33 20 10 11 44 28 74 37 51 14 94 35 230 109 24
13 52 24 61 24 9 0 25 9 35 20 10 11 30 20 45 20 15 0 44 13 64 29 20 16 51
33 69 37 18 3 48 15 67 25 33 17 59 29 174 78 27 12 57 21 67 21 10 0 48 16
86 35 37 19 75 35 83 35 8 0 40 9 70 21 30 11 72 24 92 29 21 4 43 12 50 18 7
5 30 10 50 9 21 0 45 6 55 15 10 9 51 21 91 26 40 6 83 17 96 25 12 8 49 18
82 22 32 4 69 14 82 21 12 8 43 15 69 16 26 0 61 6 77 13 17 7 69 18 116 25
47 6 101 18 120 27 24 10 70 14 147 14 62 -1 123 3 137 8 51 20 517 9 568 -13
9 -4 43 -10 75 -12 143 -9 198 -17 219 -31 14 -9 32 -12 45 -8 12 4 38 3 58
-3 55 -16 142 -33 181 -36 117 -9 180 -20 217 -37 24 -10 49 -19 57 -19 22 0
110 -42 119 -56 4 -8 14 -14 21 -14 30 0 30 -171 0 -215 -8 -11 -14 -31 -14
-46 0 -14 -9 -34 -20 -44 -11 -10 -20 -31 -20 -46 0 -16 -7 -45 -16 -66 -9
-21 -20 -47 -24 -58 -4 -11 -22 -48 -39 -83 -17 -34 -31 -70 -31 -80 0 -9 -14
-35 -30 -56 -17 -22 -30 -45 -30 -51 0 -6 -16 -26 -35 -45 -19 -19 -35 -39
-35 -46 0 -6 -11 -19 -25 -28 -14 -9 -25 -23 -25 -32 0 -8 -7 -17 -15 -21 -9
-3 -24 -22 -35 -43 -18 -35 -123 -140 -140 -140 -5 0 -23 -23 -42 -51 -18 -28
-43 -55 -56 -60 -12 -5 -26 -17 -30 -27 -19 -48 -132 -171 -180 -196 -16 -8
-44 -32 -62 -53 -18 -21 -45 -45 -60 -53 -45 -25 -83 -53 -125 -93 -22 -20
-55 -42 -75 -47 -19 -5 -49 -22 -66 -37 -37 -33 -91 -73 -99 -73 -3 0 -45 -24
-93 -53 -48 -29 -101 -59 -119 -66 -17 -7 -45 -28 -62 -47 -18 -19 -38 -34
-45 -34 -7 0 -19 -7 -26 -15 -7 -8 -21 -15 -31 -15 -11 0 -27 -9 -36 -20 -10
-11 -22 -20 -27 -20 -5 0 -20 -9 -32 -21 -23 -22 -60 -44 -134 -79 -25 -12
-56 -28 -70 -36 -14 -9 -45 -24 -70 -35 -39 -17 -107 -50 -160 -78 -57 -30
-132 -61 -170 -72 -25 -7 -52 -19 -61 -26 -8 -7 -22 -13 -30 -13 -8 0 -52 -16
-98 -35 -45 -19 -92 -35 -105 -35 -12 0 -32 -8 -45 -17 -13 -9 -58 -22 -100
-29 -167 -29 -220 -39 -227 -46 -4 -5 -19 -8 -33 -8 -14 0 -51 -7 -81 -15 -30
-9 -72 -17 -92 -20 -20 -2 -52 -10 -70 -19 -18 -8 -60 -20 -93 -26 -33 -7 -87
-20 -119 -31 -33 -10 -76 -19 -97 -19 -21 0 -41 -4 -44 -10 -3 -5 -28 -10 -54
-10 -26 0 -56 -7 -67 -15 -10 -8 -28 -15 -38 -15 -11 0 -33 -4 -50 -9 -111
-35 -181 -51 -250 -61 -44 -5 -84 -14 -90 -19 -6 -4 -49 -16 -96 -25 -144 -29
-214 -47 -247 -62 -17 -8 -43 -14 -57 -14 -15 0 -37 -7 -50 -15 -20 -14 -89
-32 -141 -39 -11 -1 -44 -10 -74 -19 -30 -9 -65 -17 -78 -17 -13 0 -45 -10
-71 -23 -26 -13 -65 -28 -87 -34 -111 -31 -216 -66 -232 -79 -10 -7 -29 -14
-42 -14 -34 0 -90 -38 -97 -65 -6 -26 5 -52 35 -79 19 -17 28 -18 103 -8 83
10 164 1 243 -27 17 -6 59 -20 95 -32 36 -12 79 -30 96 -40 17 -11 38 -19 46
-19 8 0 29 -11 48 -25 19 -14 43 -25 55 -25 12 0 39 -17 61 -37 23 -21 84 -78
137 -127 54 -49 97 -95 97 -101 0 -15 45 -74 100 -132 22 -23 40 -50 40 -62 0
-11 9 -26 20 -34 11 -7 26 -30 35 -50 8 -19 19 -38 25 -42 5 -3 10 -17 10 -30
0 -13 9 -30 20 -38 10 -7 24 -31 29 -53 5 -21 14 -55 19 -74 5 -20 20 -53 34
-75 15 -25 28 -63 32 -100 4 -33 13 -69 20 -80 14 -22 39 -136 37 -174 -1 -13
5 -31 13 -40 7 -9 17 -47 21 -86 4 -43 14 -78 25 -93 10 -12 21 -42 25 -65 4
-23 13 -52 21 -64 8 -12 14 -33 14 -45 0 -13 9 -34 20 -48 11 -14 20 -28 20
-32 0 -4 11 -24 25 -44 14 -20 25 -46 25 -56 0 -11 20 -46 45 -78 25 -32 45
-62 45 -66 0 -7 53 -70 98 -117 15 -15 39 -30 54 -34 15 -3 37 -17 50 -31 13
-15 15 -20 6 -13 -41 31 -109 -30 -91 -82 4 -12 6 -40 4 -63 -2 -36 3 -47 38
-88 23 -26 51 -67 63 -89 11 -23 27 -49 34 -57 44 -49 73 -91 93 -135 21 -45
63 -116 112 -186 28 -41 49 -98 49 -133 0 -18 7 -41 15 -52 31 -41 9 -39 -57
4 -41 26 -77 25 -110 -5 -18 -16 -24 -63 -11 -77 4 -4 9 -64 11 -134 2 -70 3
-134 4 -142 2 -46 -16 -180 -28 -213 -8 -20 -14 -52 -14 -70 0 -18 -5 -38 -11
-44 -7 -7 -13 -22 -15 -35 -2 -20 -19 -73 -55 -173 -40 -111 -61 -160 -87
-197 -16 -24 -39 -64 -51 -90 -13 -27 -27 -48 -32 -48 -5 0 -11 -11 -15 -24
-3 -13 -17 -34 -30 -47 -13 -12 -24 -27 -24 -32 0 -5 -16 -28 -35 -51 -19 -24
-35 -48 -35 -54 0 -6 -18 -25 -40 -43 -22 -18 -42 -41 -46 -51 -3 -11 -17 -23
-30 -28 -13 -5 -24 -14 -24 -19 0 -6 -32 -29 -70 -52 -39 -23 -76 -50 -83 -59
-7 -10 -30 -25 -52 -34 -22 -9 -49 -25 -60 -35 -11 -10 -31 -22 -45 -26 -14
-4 -37 -16 -52 -26 -14 -11 -32 -19 -40 -19 -8 0 -23 -7 -34 -15 -10 -8 -29
-15 -41 -15 -12 0 -27 -8 -32 -19 -6 -10 -24 -21 -41 -25 -18 -3 -71 -24 -118
-47 -96 -46 -130 -57 -214 -69 -33 -4 -68 -17 -84 -29 -18 -14 -41 -21 -71
-21 -76 0 -163 -51 -163 -96 0 -13 -4 -25 -9 -29 -16 -9 -6 -143 13 -163 9
-10 16 -23 16 -29 0 -6 7 -16 15 -23 8 -7 15 -20 15 -29 0 -9 9 -29 20 -46 11
-16 24 -37 30 -45 5 -8 23 -45 40 -82 17 -37 36 -71 42 -74 6 -4 19 -25 30
-48 11 -22 28 -57 38 -76 10 -19 17 -36 17 -37 -1 0 -36 -4 -77 -7 -113 -9
-170 -18 -176 -27 -3 -5 -16 -9 -30 -9 -14 0 -39 -7 -56 -16 -18 -9 -65 -20
-105 -25 -40 -5 -87 -18 -105 -28 -35 -21 -225 -71 -265 -71 -14 0 -37 -6 -51
-14 -46 -24 -76 -35 -112 -41 -19 -4 -45 -13 -57 -21 -12 -8 -31 -14 -41 -14
-22 0 -108 -34 -167 -65 -22 -12 -74 -30 -115 -40 -41 -9 -86 -23 -100 -31
-36 -20 -209 -74 -236 -74 -12 0 -26 -4 -29 -10 -3 -5 -21 -10 -39 -10 -19 0
-39 -7 -46 -15 -7 -8 -23 -15 -37 -15 -13 0 -26 -6 -29 -14 -3 -7 -24 -19 -47
-26 -38 -11 -88 -30 -189 -74 -20 -9 -43 -16 -51 -16 -15 0 -105 -45 -122 -61
-5 -5 -19 -9 -32 -9 -13 0 -32 -9 -43 -20 -11 -11 -24 -20 -29 -20 -5 0 -26
-9 -48 -20 -21 -11 -58 -29 -83 -40 -25 -11 -57 -30 -72 -42 -20 -15 -46 -23
-87 -26 -53 -4 -62 -2 -80 19 -41 48 -101 105 -156 149 -30 25 -71 60 -91 77
-19 18 -42 33 -52 33 -9 0 -69 16 -132 36 -63 19 -138 42 -167 51 -29 9 -67
13 -86 10 -19 -3 -39 -1 -43 3 -5 5 -61 11 -124 13 -63 2 -128 10 -145 16 -17
7 -47 10 -67 7 -21 -4 -38 -3 -38 0 0 3 14 23 30 44 30 38 30 38 13 69 -10 17
-32 37 -48 45 -17 8 -41 27 -55 41 -25 27 -105 85 -117 85 -3 0 -21 11 -39 25
-18 14 -41 25 -52 25 -11 0 -25 7 -32 15 -7 8 -20 15 -29 15 -29 0 -103 30
-136 55 -17 14 -40 25 -50 25 -9 0 -33 14 -52 30 -18 17 -45 30 -58 30 -13 0
-26 4 -30 9 -3 5 -18 12 -34 16 -16 3 -37 15 -46 25 -10 11 -34 22 -54 25 -20
4 -52 15 -72 26 -20 10 -44 19 -53 19 -9 0 -28 7 -41 16 -16 10 -34 14 -50 10
-19 -5 -30 0 -47 19 -12 14 -28 25 -37 25 -8 0 -22 6 -30 13 -9 7 -41 19 -71
26 -54 13 -103 35 -127 57 -7 6 -34 15 -60 18 -26 4 -61 13 -78 21 -16 7 -50
22 -75 33 -104 45 -139 62 -145 72 -3 5 -16 10 -29 10 -12 0 -50 18 -84 40
-33 22 -66 40 -73 40 -6 0 -39 21 -73 46 -33 26 -66 48 -72 51 -5 2 -28 29
-50 60 -21 30 -52 71 -69 90 -28 34 -28 36 -10 49 10 8 28 14 39 14 12 0 34 7
51 16 16 8 50 18 75 21 57 8 106 28 113 46 3 8 -1 24 -9 36 -13 18 -23 21 -67
18 -29 -2 -70 -12 -93 -21 -23 -9 -45 -16 -50 -14 -9 3 -65 -16 -97 -33 -13
-7 -19 -5 -23 8 -3 10 -10 27 -14 38 -5 11 -12 31 -16 45 -3 14 -16 39 -29 55
-12 17 -25 48 -29 70 -4 22 -10 51 -13 65 -6 24 -5 24 14 8 11 -10 27 -18 35
-18 9 0 55 -18 103 -40 48 -22 95 -40 104 -40 43 0 58 64 18 79 -13 5 -29 16
-36 24 -7 9 -36 23 -64 33 -29 9 -61 22 -72 28 -11 7 -39 18 -63 25 -31 9 -41
16 -34 24 5 7 12 30 14 52 3 23 17 67 32 98 14 32 26 64 26 71 0 8 7 17 15 20
9 3 22 21 30 40 8 19 28 44 45 56 16 12 30 28 30 36 0 7 15 20 34 28 18 8 37
19 40 25 4 6 17 11 30 11 27 0 52 25 61 63 9 33 -13 84 -61 144 -38 46 -54 82
-54 120 0 15 -11 36 -26 50 -16 14 -23 30 -20 39 3 9 6 24 6 35 0 17 3 18 23
7 12 -7 31 -20 42 -29 11 -9 30 -20 42 -23 23 -7 28 -22 39 -106 4 -30 15 -66
25 -79 11 -13 19 -29 19 -36 0 -30 109 -98 175 -110 22 -4 45 -12 52 -17 6 -5
78 -11 160 -14 81 -3 149 -7 151 -9 2 -2 -1 -11 -6 -22 -24 -48 -41 -121 -35
-159 3 -23 1 -50 -4 -59 -6 -11 -7 -33 -2 -55 5 -21 11 -62 14 -92 8 -90 17
-127 31 -139 8 -6 14 -24 14 -39 0 -30 77 -119 135 -155 17 -11 34 -25 38 -32
22 -35 116 -56 247 -54 68 2 95 7 135 27 l49 24 39 -45 c21 -25 44 -45 50 -45
7 0 30 -18 51 -40 22 -22 48 -40 58 -40 10 0 18 -4 18 -10 0 -5 17 -19 38 -30
20 -11 73 -45 116 -75 44 -30 87 -55 95 -55 9 0 33 -9 54 -20 33 -18 45 -19
98 -11 50 8 69 17 102 49 88 81 127 123 127 138 0 19 28 73 47 92 8 8 17 27
20 43 3 15 11 30 19 33 8 3 14 18 14 33 0 26 9 32 98 74 53 26 107 49 120 53
12 4 22 11 22 16 0 5 15 13 33 19 17 7 65 43 105 81 40 39 77 70 81 70 4 0 13
11 19 25 14 30 34 32 70 6 31 -22 109 -33 277 -36 99 -2 112 0 133 18 24 22
29 52 11 63 -7 4 -62 8 -122 10 -158 4 -224 13 -289 40 -32 13 -66 24 -76 24
-10 0 -27 9 -36 19 -10 11 -39 30 -64 42 -26 12 -71 48 -101 80 -60 64 -86 73
-101 33 -15 -38 -13 -47 16 -74 14 -14 38 -38 52 -54 15 -15 58 -48 95 -73 56
-36 67 -47 57 -58 -7 -8 -20 -17 -30 -20 -11 -3 -21 -14 -24 -23 -5 -16 -31
-35 -93 -70 -13 -7 -23 -17 -23 -23 0 -5 -5 -9 -11 -9 -6 0 -22 -9 -36 -20
-14 -11 -35 -20 -45 -20 -11 0 -32 -6 -46 -14 -41 -22 -99 -46 -109 -46 -6 0
-23 -7 -40 -15 -53 -27 -320 -14 -339 16 -3 5 -20 9 -39 9 -18 0 -48 8 -67 17
-64 32 -83 40 -108 47 -14 3 -49 29 -78 57 -41 39 -60 49 -80 47 -23 -2 -29
-10 -37 -45 -6 -24 -24 -57 -43 -76 -17 -18 -32 -38 -32 -45 0 -7 -7 -12 -15
-12 -8 0 -22 -11 -31 -25 -9 -14 -23 -25 -31 -25 -8 0 -27 -8 -41 -19 -94 -66
-276 -54 -356 23 -18 17 -47 43 -65 58 -33 28 -71 111 -71 155 0 12 -4 24 -9
27 -26 17 -18 326 10 362 5 6 15 29 23 52 31 87 119 195 251 306 85 72 290
160 399 172 28 3 54 8 60 11 19 12 205 14 281 4 75 -11 172 -48 195 -76 15
-18 63 -28 90 -20 17 5 21 14 18 43 -3 33 -7 38 -53 56 -27 12 -61 29 -75 38
-14 9 -51 24 -83 32 -31 8 -61 17 -65 20 -22 13 -124 13 -230 -1 -64 -8 -137
-16 -162 -18 -25 -2 -72 -13 -105 -25 -33 -11 -67 -23 -75 -26 -17 -6 -68 88
-91 166 -7 25 -23 63 -35 85 -12 22 -25 51 -29 64 -26 83 -158 231 -252 283
-174 95 -456 62 -579 -69 -53 -56 -103 -156 -114 -228 -8 -51 -32 -168 -35
-173 -7 -9 -76 27 -104 55 -19 18 -40 33 -48 33 -7 0 -21 -16 -30 -36 -17 -35
-17 -36 2 -50 11 -7 25 -17 30 -21 43 -36 110 -73 131 -73 20 0 24 -5 24 -27
0 -57 -13 -61 -81 -24 -38 20 -70 31 -85 28 -20 -3 -25 1 -30 22 -3 14 -9 35
-14 46 -8 19 -20 56 -49 147 -7 20 -9 48 -6 61 4 14 0 37 -8 53 -23 47 -34
188 -37 524 -3 227 6 418 20 435 5 6 8 30 9 55 0 46 3 63 20 135 5 22 16 72
24 110 7 39 19 80 25 92 7 12 12 33 12 47 0 14 9 50 21 81 11 30 19 61 16 68
-2 6 0 20 5 30 5 10 16 44 24 75 8 31 24 69 34 84 11 15 19 40 18 55 -1 16 9
45 24 68 15 22 30 57 33 77 4 21 13 42 21 49 8 6 14 22 14 34 0 12 7 28 15 35
8 7 15 20 15 29 0 28 24 85 47 115 12 15 25 44 29 65 8 44 43 111 67 129 9 7
17 21 17 31 0 10 12 32 28 48 33 37 77 109 87 143 4 14 34 54 66 90 33 36 59
70 59 77 0 7 15 23 33 37 19 14 42 41 51 59 10 18 36 45 57 60 21 16 39 34 39
41 0 7 20 32 44 57 24 24 59 64 78 89 62 81 124 146 261 275 27 25 52 45 57
45 4 0 33 25 65 55 31 30 61 55 66 55 5 0 18 9 28 19 11 11 33 27 48 35 15 8
37 23 48 33 40 37 92 73 107 73 8 0 25 12 39 26 13 14 40 34 60 44 19 10 41
26 48 34 8 9 32 24 55 35 22 10 60 33 83 52 23 19 66 49 97 68 30 18 61 39 67
47 6 8 18 14 27 14 8 0 23 6 31 14 9 8 59 30 111 49 52 19 109 42 125 51 17 9
43 16 58 16 16 0 40 9 54 20 14 11 34 20 44 20 50 0 67 77 24 106 -21 14 -31
15 -51 5 -14 -6 -38 -11 -54 -11 -16 0 -32 -4 -35 -10 -3 -5 -19 -10 -35 -10
-16 0 -46 -11 -66 -25 -20 -14 -46 -25 -58 -25 -12 0 -32 -7 -44 -16 -12 -8
-27 -12 -32 -9 -13 8 -13 72 0 80 6 3 10 16 10 28 0 12 9 36 20 52 11 17 20
39 20 51 0 11 9 29 20 39 11 10 20 25 20 33 0 9 9 26 21 38 11 12 25 40 30 61
4 22 24 57 44 79 19 21 40 55 46 76 5 21 13 38 18 38 4 0 15 15 23 34 9 18 30
49 47 69 17 19 31 41 31 49 0 8 9 23 21 34 12 10 29 35 39 54 10 19 32 49 48
65 16 17 54 62 85 100 63 81 215 245 258 281 8 7 28 28 44 49 17 20 38 44 48
54 10 9 47 44 81 79 34 34 66 62 70 62 4 0 43 36 87 80 44 44 84 80 89 80 5 0
32 23 59 50 28 28 55 50 62 50 10 0 51 31 117 90 12 11 27 20 32 20 4 0 28 19
52 43 24 24 61 51 83 61 22 10 47 25 55 33 35 32 106 83 116 83 6 0 17 7 24
15 12 14 30 25 113 67 20 10 37 22 37 27 0 5 8 12 18 15 39 15 84 43 108 69
13 15 34 27 44 27 11 0 34 13 51 29 17 17 43 33 59 36 15 3 36 15 46 26 9 10
23 19 31 19 7 0 43 15 80 34 38 19 93 46 123 60 30 15 62 31 70 36 38 23 184
90 195 90 7 0 18 7 25 15 7 8 19 15 26 15 8 0 51 18 95 40 45 22 94 40 109 40
15 0 44 12 65 26 21 14 52 27 69 29 17 1 48 13 69 25 21 12 69 31 107 41 38
10 79 24 92 32 13 8 61 22 108 31 47 9 89 21 94 26 6 6 23 10 39 10 16 0 41 6
55 14 15 8 47 19 72 26 25 6 65 18 90 26 25 8 54 14 65 14 11 0 47 9 79 20 33
11 78 20 102 20 24 0 45 4 48 9 3 5 35 9 70 9 36 0 73 5 83 10 22 11 82 20
188 28 44 3 81 7 83 8 3 3 137 1 259 -3z m2977 -297 c9 -3 16 -10 16 -16 0 -5
-6 -5 -16 0 -9 5 -25 7 -35 5 -9 -3 -26 0 -36 6 -15 9 -12 10 19 11 20 0 43
-3 52 -6z m-2081 -3051 c-7 -2 -19 -2 -25 0 -7 3 -2 5 12 5 14 0 19 -2 13 -5z
m-1796 -555 c-4 -73 -7 -137 -7 -142 0 -5 -9 3 -20 17 -17 22 -20 40 -20 135
0 111 3 119 39 121 12 1 13 -22 8 -131z m-5351 -3264 c66 -10 99 -25 124 -57
12 -15 26 -27 32 -27 16 0 128 -150 128 -171 0 -6 7 -23 14 -37 24 -43 56
-123 56 -138 0 -8 11 -36 24 -62 13 -26 27 -59 30 -75 5 -23 2 -29 -20 -37
-14 -6 -52 -30 -84 -55 -32 -25 -63 -45 -68 -45 -5 0 -13 -8 -17 -17 -5 -13
-11 -4 -26 37 -27 78 -44 91 -120 95 -35 2 -75 8 -87 12 -24 9 -24 9 11 36 20
15 42 27 50 27 21 0 67 49 68 74 6 79 4 107 -9 151 -7 28 -20 63 -28 78 -8 16
-14 33 -14 39 0 5 -16 29 -35 52 -19 24 -35 48 -35 54 0 6 -6 15 -12 19 -25
16 -64 66 -47 60 9 -3 38 -9 65 -13z m-321 -389 c34 -35 55 -38 55 -10 0 23
40 38 89 32 59 -7 81 -32 74 -87 -3 -22 0 -53 7 -70 13 -32 13 -32 -32 -123
-5 -9 -18 -42 -29 -73 -21 -57 -43 -74 -93 -74 -38 0 -147 95 -182 159 -35 62
-42 89 -49 171 -5 62 11 96 47 103 60 11 78 7 113 -28z m-3201 -3344 c3 -5 20
-11 38 -14 84 -14 235 -48 303 -68 22 -6 60 -13 85 -16 25 -3 50 -10 57 -15 7
-5 36 -13 65 -18 29 -5 71 -14 93 -20 22 -7 63 -15 90 -20 84 -14 109 -19 145
-30 19 -5 48 -10 65 -10 16 0 50 -9 74 -20 24 -11 69 -23 100 -26 31 -3 65 -9
76 -14 59 -23 195 -56 280 -66 22 -3 44 -9 50 -13 5 -5 42 -14 80 -21 39 -6
78 -16 88 -21 10 -6 48 -12 85 -16 37 -3 77 -12 89 -19 12 -8 40 -14 61 -14
38 0 97 -15 187 -46 23 -8 55 -14 72 -14 17 0 44 -7 59 -15 16 -8 44 -15 62
-15 18 0 43 -6 55 -14 12 -7 55 -16 96 -20 40 -3 83 -13 94 -21 12 -8 35 -15
52 -15 34 -1 121 -22 131 -33 4 -4 24 -7 45 -7 41 0 136 -22 168 -39 11 -6 32
-11 48 -11 41 0 173 -28 208 -44 26 -12 118 -33 230 -53 17 -2 44 -11 62 -19
17 -8 51 -14 75 -14 24 0 49 -5 55 -11 6 -6 32 -13 58 -15 47 -3 145 -28 177
-45 10 -5 33 -9 52 -9 19 0 38 -4 41 -10 3 -5 20 -10 36 -10 17 0 38 -4 47 -9
9 -5 64 -17 122 -26 58 -10 113 -21 122 -26 9 -5 52 -14 95 -20 88 -12 112
-30 113 -86 0 -17 5 -35 10 -38 6 -3 10 -20 10 -37 0 -16 11 -52 25 -79 13
-27 27 -66 30 -86 4 -21 15 -50 26 -65 10 -15 19 -40 19 -55 0 -33 22 -105 45
-151 9 -18 18 -48 19 -67 2 -20 10 -43 19 -53 9 -9 20 -35 26 -57 5 -22 14
-57 20 -79 5 -21 14 -43 20 -49 6 -6 11 -25 11 -43 0 -17 7 -37 15 -44 8 -7
15 -23 15 -37 0 -13 7 -37 15 -52 8 -16 12 -31 9 -34 -3 -3 4 -22 15 -43 12
-21 21 -46 21 -56 0 -9 4 -19 9 -22 4 -3 16 -34 26 -68 9 -35 21 -67 25 -73
13 -17 60 -160 60 -185 0 -12 13 -48 29 -80 17 -32 27 -67 25 -77 -3 -11 8
-49 24 -85 16 -36 37 -97 47 -134 9 -38 26 -89 38 -114 12 -25 23 -55 24 -67
1 -12 8 -34 16 -50 9 -16 18 -47 22 -68 4 -22 13 -47 19 -55 7 -8 24 -55 40
-105 15 -49 36 -109 47 -133 10 -23 19 -58 19 -76 0 -18 9 -45 20 -59 11 -14
20 -38 20 -53 0 -15 16 -50 35 -78 19 -28 40 -73 47 -101 21 -87 38 -94 82
-38 35 43 37 92 7 134 -11 14 -23 47 -26 73 -4 26 -14 50 -21 53 -23 9 -52 66
-63 128 -16 84 -32 137 -48 156 -7 8 -13 29 -13 46 0 17 -7 36 -15 43 -8 7
-15 21 -15 32 0 17 4 19 23 13 73 -23 297 -20 363 5 16 6 38 9 49 6 12 -3 37
-1 56 5 19 5 54 12 78 14 25 3 54 11 66 19 19 12 56 21 165 39 14 3 33 8 43
12 13 5 17 2 17 -13 0 -11 -8 -22 -20 -25 -11 -3 -20 -14 -20 -24 0 -11 -18
-44 -40 -73 -22 -29 -40 -60 -40 -67 0 -7 -17 -32 -38 -56 -54 -59 -102 -123
-102 -134 0 -6 -9 -18 -20 -28 -11 -10 -20 -23 -20 -30 0 -7 -8 -19 -18 -28
-9 -9 -33 -46 -52 -83 -19 -37 -52 -85 -72 -108 -21 -22 -50 -66 -65 -96 -54
-106 -147 -174 -206 -150 -29 11 -98 24 -119 21 -9 -1 -19 3 -23 9 -3 5 -23
10 -44 10 -20 0 -42 5 -48 11 -6 6 -29 15 -50 20 -21 4 -60 13 -88 19 -27 6
-69 18 -92 26 -23 9 -49 14 -57 11 -14 -6 -63 7 -99 25 -10 5 -52 13 -92 17
-40 5 -88 16 -106 25 -17 9 -39 16 -48 16 -20 0 -196 44 -235 59 -16 7 -37 9
-46 6 -10 -3 -21 -2 -24 4 -3 5 -39 14 -79 21 -39 6 -84 18 -99 26 -14 8 -43
14 -65 14 -21 1 -49 7 -63 15 -14 8 -38 14 -53 15 -16 0 -38 5 -50 12 -22 12
-71 23 -157 35 -25 3 -55 13 -68 21 -13 9 -34 12 -51 9 -15 -3 -33 -1 -39 5
-6 6 -37 15 -68 19 -30 4 -64 15 -73 23 -10 9 -32 16 -50 16 -17 0 -48 7 -68
15 -19 8 -54 15 -77 15 -23 0 -46 4 -52 8 -16 15 -92 35 -107 29 -14 -5 -80
13 -93 26 -4 4 -22 7 -40 7 -18 0 -48 9 -66 19 -18 11 -60 23 -93 27 -33 4
-77 13 -99 20 -21 8 -55 14 -75 14 -20 0 -47 7 -60 16 -13 9 -42 17 -65 18
-22 1 -52 9 -66 18 -14 9 -63 22 -110 29 -47 6 -93 16 -103 21 -10 5 -41 12
-69 14 -28 3 -65 11 -83 18 -17 8 -52 17 -76 21 -24 4 -53 12 -64 18 -16 9
-80 23 -185 40 -8 1 -26 8 -39 16 -13 7 -43 15 -65 16 -23 2 -59 10 -81 18
-22 9 -53 16 -68 17 -15 0 -41 7 -58 16 -16 8 -38 13 -47 10 -9 -3 -29 0 -44
8 -14 8 -46 17 -70 21 -24 3 -52 10 -63 14 -11 5 -33 14 -50 21 -16 6 -64 14
-105 17 -47 4 -94 15 -127 29 -28 13 -61 24 -73 24 -36 0 -90 28 -90 47 0 10
-7 27 -15 37 -8 11 -15 37 -15 57 0 21 -4 40 -9 43 -4 3 -11 25 -15 48 -4 24
-13 53 -21 65 -8 12 -22 66 -31 120 -8 53 -20 103 -26 110 -12 15 -27 71 -59
223 -7 30 -20 69 -31 86 -10 17 -18 50 -18 73 0 28 -5 44 -15 47 -10 4 -15 21
-15 53 0 26 -6 55 -14 66 -7 11 -19 45 -26 75 -8 30 -20 67 -27 82 -7 15 -13
45 -13 68 0 22 -9 57 -20 77 -11 21 -20 48 -20 61 0 12 -9 41 -21 64 -12 23
-22 62 -23 87 -1 25 -8 56 -14 68 -7 12 -12 31 -12 42 0 10 -10 41 -21 68 -12
26 -21 59 -20 72 0 14 -6 35 -14 47 -8 12 -18 42 -21 66 -4 24 -13 55 -20 70
-8 15 -14 40 -14 57 0 16 -4 33 -10 36 -5 3 -10 16 -10 28 0 12 -9 46 -20 75
-11 29 -20 63 -20 76 0 14 -6 37 -14 53 -8 15 -20 55 -26 88 -7 33 -18 78 -26
100 -8 23 -14 52 -14 66 0 14 -11 48 -25 75 -14 27 -28 69 -31 94 -3 25 -10
56 -14 70 -5 14 -12 44 -15 68 -6 34 -4 42 9 42 8 0 17 -4 20 -9z m5431 -54
c11 -17 28 -44 37 -59 31 -49 66 -171 71 -249 l6 -76 -42 1 -42 1 3 40 c5 56
-16 97 -97 195 -72 85 -82 111 -60 151 24 46 94 44 124 -4z m1253 -48 c1 -35
-65 -181 -100 -221 -13 -15 -31 -38 -41 -52 -12 -18 -27 -26 -47 -26 -34 0
-35 2 -18 33 6 12 15 38 19 57 22 113 40 155 81 197 32 33 50 43 74 43 28 0
31 -3 32 -31z m-80 -439 c19 -51 -51 -144 -99 -133 -30 7 -38 51 -30 170 1 16
11 27 34 36 31 14 33 13 59 -17 15 -17 31 -42 36 -56z m-1018 20 c55 -19 55
-19 52 -57 -6 -66 -69 -102 -157 -88 -59 8 -85 31 -92 81 -5 38 -3 42 28 62
42 27 96 28 169 2z m977 -237 c-3 -10 -5 -4 -5 12 0 17 2 24 5 18 2 -7 2 -21
0 -30z m-1050 9 c-10 -10 -17 -25 -17 -33 0 -8 -5 -20 -12 -27 -6 -6 -12 -34
-12 -61 -1 -60 24 -94 62 -84 29 7 72 80 72 121 0 44 16 40 23 -5 11 -76 -16
-186 -61 -241 -38 -48 -147 -36 -181 19 -22 37 -16 123 15 197 33 80 40 90 79
114 38 23 53 23 32 0z m1127 -114 c-8 -15 -21 -28 -30 -28 -8 0 -19 -11 -24
-24 -14 -39 -47 -52 -73 -29 -12 10 -24 19 -26 20 -7 4 -9 90 -2 101 5 9 13 7
26 -8 31 -34 71 -26 102 21 l28 42 6 -34 c5 -22 2 -43 -7 -61z m4477 -630 c48
-19 61 -30 90 -76 92 -146 148 -169 168 -69 6 28 17 38 96 79 94 49 103 51
248 50 70 0 94 -5 121 -21 18 -12 40 -21 49 -21 8 0 17 -7 21 -15 3 -8 17 -15
30 -15 18 0 34 -13 60 -47 19 -27 43 -57 54 -68 11 -11 29 -42 42 -70 12 -27
29 -58 38 -68 8 -9 19 -37 24 -62 4 -25 12 -66 17 -92 19 -99 -31 -189 -147
-263 -69 -44 -92 -71 -92 -110 0 -23 36 -50 67 -50 12 0 25 -4 28 -10 3 -5 12
-10 20 -10 15 0 56 -32 89 -70 11 -13 40 -44 63 -67 24 -24 47 -60 52 -81 6
-20 17 -46 24 -57 15 -21 33 -83 28 -99 -1 -5 3 -22 10 -38 9 -23 8 -32 -5
-54 -15 -22 -16 -33 -6 -77 10 -48 8 -60 -26 -167 -21 -63 -45 -122 -54 -130
-10 -8 -24 -32 -31 -54 -8 -21 -21 -41 -29 -44 -8 -3 -27 -14 -42 -24 -25 -17
-36 -18 -120 -9 -51 6 -112 13 -135 17 -39 5 -44 4 -52 -17 -9 -26 1 -64 25
-91 20 -21 14 -95 -9 -128 -10 -14 -22 -42 -28 -63 -7 -27 -21 -44 -48 -62
-22 -14 -43 -37 -49 -54 -6 -17 -18 -31 -26 -31 -8 0 -21 -6 -28 -12 -7 -7
-31 -25 -54 -41 -22 -15 -51 -39 -62 -52 -12 -14 -30 -25 -41 -25 -18 0 -81
-22 -113 -40 -14 -8 -145 -27 -203 -29 -56 -2 -112 0 -130 5 -41 12 -135 58
-135 66 0 5 -16 18 -35 29 -39 23 -44 49 -21 96 31 61 48 113 43 127 -3 8 6
47 20 88 16 47 28 113 35 188 5 63 16 148 23 188 8 40 11 83 6 95 -9 26 -7 84
2 94 4 3 7 32 7 64 0 37 8 74 22 106 11 26 22 62 24 78 2 17 6 42 10 57 4 19
0 38 -16 63 -19 31 -23 53 -26 163 -3 107 -16 268 -30 397 -2 17 -6 71 -9 120
-3 50 -9 113 -15 140 -17 82 -39 217 -44 263 -4 40 -2 46 36 80 65 59 84 63
169 30z m-4083 -1551 c10 -9 24 -17 31 -17 17 0 79 -68 103 -115 11 -22 24
-42 29 -45 9 -6 59 -104 59 -116 0 -5 11 -31 24 -59 14 -27 30 -70 36 -95 7
-25 16 -53 21 -62 5 -10 9 -28 9 -40 0 -13 9 -42 20 -66 21 -46 48 -268 44
-362 -1 -30 -3 -118 -4 -195 -3 -132 -21 -333 -33 -352 -3 -5 -8 -65 -11 -133
-4 -69 -9 -160 -12 -203 -7 -89 1 -107 51 -107 55 0 59 12 70 215 3 54 11 105
17 112 5 7 8 23 4 36 -3 13 1 68 9 123 9 54 13 110 10 124 -2 14 1 70 8 125 9
64 10 114 5 139 -6 26 -5 43 3 53 10 11 10 22 0 49 -7 18 -9 38 -6 44 3 6 1
54 -6 108 -12 104 -15 170 -7 178 3 2 18 -1 34 -7 16 -6 40 -13 54 -15 14 -2
52 -9 85 -15 70 -14 336 -18 412 -6 28 4 96 10 150 12 54 3 121 7 148 9 28 3
95 7 150 10 55 3 138 8 185 11 155 10 234 15 340 19 58 3 146 9 195 14 50 6
137 15 195 21 58 7 135 16 173 21 37 6 90 10 118 10 28 0 59 5 70 10 18 10
110 19 259 24 71 3 175 19 230 35 19 6 63 11 97 11 34 0 65 5 68 10 3 6 19 10
34 10 15 0 43 8 62 17 18 9 55 20 82 24 26 4 62 15 79 23 17 9 44 16 59 16 15
0 31 5 35 12 5 8 10 6 14 -8 4 -10 4 -23 0 -29 -4 -5 -11 -41 -15 -80 -4 -38
-16 -87 -26 -107 -10 -20 -19 -52 -19 -70 0 -18 -9 -44 -20 -58 -11 -14 -20
-36 -20 -50 0 -13 -17 -60 -39 -105 -21 -44 -49 -105 -61 -135 -13 -30 -33
-75 -45 -100 -13 -25 -26 -56 -30 -70 -4 -14 -24 -45 -44 -70 -47 -57 -97
-133 -105 -158 -4 -11 -27 -41 -51 -67 -25 -26 -45 -52 -45 -57 0 -18 -192
-194 -252 -230 -15 -10 -47 -38 -71 -62 -23 -24 -58 -51 -77 -61 -36 -18 -43
-24 -93 -69 -15 -14 -37 -26 -47 -26 -11 0 -27 -8 -37 -17 -10 -10 -36 -27
-58 -38 -22 -10 -58 -33 -80 -50 -22 -17 -53 -38 -70 -47 -68 -34 -143 -68
-152 -68 -6 0 -16 -7 -23 -15 -7 -8 -21 -15 -32 -15 -10 0 -35 -8 -56 -19 -20
-10 -57 -21 -82 -25 -24 -4 -51 -13 -60 -20 -8 -7 -40 -16 -70 -20 -30 -3 -80
-11 -110 -16 -30 -6 -114 -10 -186 -9 l-131 2 15 41 c9 22 19 43 23 46 22 18
57 93 63 137 8 61 -7 83 -59 83 -37 0 -55 -20 -55 -63 0 -13 -9 -36 -20 -50
-11 -14 -20 -29 -20 -35 0 -5 -9 -17 -20 -27 -11 -10 -20 -24 -20 -31 0 -7
-10 -25 -23 -41 -13 -15 -26 -36 -30 -45 -3 -10 -15 -18 -25 -18 -28 0 -56
-35 -49 -61 5 -17 -2 -31 -26 -53 -18 -17 -38 -45 -45 -61 -7 -17 -23 -35 -35
-40 -12 -6 -29 -24 -37 -42 -8 -17 -25 -42 -38 -55 -12 -13 -50 -54 -82 -93
-33 -38 -68 -74 -78 -80 -9 -5 -42 -36 -72 -68 -30 -32 -97 -92 -147 -133 -51
-41 -93 -79 -93 -84 0 -5 -25 -21 -55 -36 -30 -15 -57 -34 -60 -43 -2 -9 -17
-22 -32 -28 -16 -7 -45 -29 -66 -48 -21 -19 -56 -44 -77 -55 -21 -11 -51 -31
-65 -44 -25 -23 -69 -48 -135 -75 -14 -6 -32 -15 -40 -20 -42 -25 -172 -81
-188 -81 -11 0 -33 -7 -51 -16 -34 -17 -130 -42 -196 -51 -22 -3 -47 -11 -55
-18 -8 -7 -26 -14 -40 -14 -14 -1 -45 -3 -70 -6 -62 -8 -77 -8 -135 -2 -92 9
-130 20 -180 54 -27 18 -56 33 -64 33 -13 0 -36 18 -100 81 -14 14 -34 29 -44
32 -10 4 -25 23 -33 42 -8 19 -18 35 -24 35 -10 0 -100 180 -100 201 0 8 -11
50 -25 94 -14 44 -30 123 -36 175 -6 52 -15 99 -20 104 -5 6 -9 29 -9 51 0 23
-7 86 -16 141 -20 124 -24 183 -39 589 -3 83 -8 177 -10 210 -3 33 -5 74 -5
92 0 18 -5 35 -10 38 -6 3 -10 30 -10 60 0 30 -4 57 -10 60 -5 3 -10 16 -10
29 0 13 -6 36 -14 52 -8 16 -20 52 -27 79 -6 28 -18 65 -25 83 -8 18 -14 40
-14 49 0 9 -9 27 -21 39 -11 12 -25 41 -30 65 -9 37 -7 44 8 53 32 18 113 98
113 112 0 8 4 14 9 14 5 0 31 34 56 75 26 41 51 75 55 75 7 0 110 151 119 175
2 5 12 21 22 34 11 13 19 32 19 42 0 11 15 36 33 56 37 43 127 161 127 168 0
2 14 24 30 48 17 25 30 50 30 56 0 5 14 26 30 44 17 19 30 39 30 44 0 5 11 20
24 32 13 13 27 33 30 46 6 24 99 85 129 85 8 0 25 -8 38 -19 l23 -19 -51 -58
c-55 -65 -83 -112 -83 -143 0 -11 -4 -22 -9 -25 -10 -6 -37 -105 -33 -120 2
-5 -1 -22 -7 -37 -20 -59 61 -107 102 -61 10 11 19 42 21 76 2 32 7 60 10 63
3 4 6 13 6 22 0 9 7 29 15 45 8 15 15 36 15 46 0 10 23 38 50 63 28 25 50 52
50 60 0 8 17 26 37 39 20 12 44 28 52 33 9 6 26 19 39 30 39 34 82 45 174 42
65 -2 92 -7 106 -20z m-5513 -178 c33 -12 85 -27 115 -34 30 -8 75 -20 100
-27 l45 -13 -13 -39 c-14 -43 -11 -170 6 -266 28 -154 66 -294 87 -320 6 -8
22 -42 34 -75 29 -75 80 -182 104 -214 9 -13 17 -34 17 -46 0 -12 9 -34 20
-48 11 -14 20 -33 20 -43 0 -10 4 -31 9 -48 32 -102 45 -152 43 -163 -3 -13
81 -176 104 -203 65 -77 141 -150 156 -150 10 0 30 -7 43 -16 34 -22 162 -37
200 -23 110 41 182 98 215 171 6 12 20 39 30 58 11 19 19 44 20 55 0 11 7 39
15 63 11 32 16 92 16 230 1 186 0 212 -15 265 -5 16 -10 49 -11 75 -1 26 -10
72 -20 102 -9 30 -20 71 -24 91 -4 19 -15 48 -24 65 -9 16 -23 52 -31 79 -8
28 -26 75 -39 106 l-26 57 32 5 c18 2 56 -4 87 -15 30 -11 71 -23 90 -27 19
-4 45 -13 57 -19 12 -7 33 -12 47 -12 20 0 27 -6 32 -27 3 -16 10 -38 15 -51
18 -45 38 -164 32 -193 -3 -16 -1 -35 4 -41 6 -7 16 -35 22 -62 17 -71 45
-106 83 -106 33 0 68 24 68 47 0 8 -9 26 -20 41 -13 17 -26 61 -35 117 -21
135 -33 198 -40 218 -6 13 -2 17 16 17 30 0 149 -28 171 -40 10 -6 29 -10 42
-10 14 0 28 -4 31 -10 3 -5 23 -10 44 -10 22 0 58 -9 82 -20 24 -11 62 -20 84
-20 22 0 60 -10 85 -21 25 -12 69 -23 98 -24 30 -2 61 -10 71 -19 9 -8 39 -17
66 -19 28 -3 86 -15 130 -27 132 -36 148 -40 193 -40 43 0 43 0 37 -29 -7 -34
19 -93 59 -130 14 -14 26 -32 26 -42 0 -10 8 -24 18 -31 10 -7 21 -21 25 -30
11 -31 81 -116 105 -127 12 -6 22 -17 22 -24 0 -14 18 -30 125 -110 39 -29 71
-55 73 -59 7 -16 130 -106 177 -130 51 -26 111 -57 131 -67 6 -3 22 -14 35
-23 13 -9 35 -19 49 -21 25 -5 63 -20 90 -36 70 -40 169 -26 170 24 0 36 -70
85 -123 85 -14 0 -30 7 -37 15 -7 8 -23 15 -36 15 -24 0 -129 53 -140 71 -5 9
-52 32 -111 54 -17 7 -57 35 -90 62 -32 28 -63 52 -69 54 -6 2 -59 49 -117
103 -78 73 -113 114 -131 153 -14 29 -35 58 -46 65 -11 7 -20 16 -20 20 0 4
-11 24 -25 44 -28 41 -26 53 8 37 27 -13 117 -35 260 -63 59 -12 123 -28 142
-36 19 -7 47 -14 62 -14 15 0 48 -8 73 -16 25 -9 60 -18 79 -20 19 -1 44 -7
55 -12 64 -28 128 -45 185 -49 35 -2 76 -11 91 -20 28 -16 55 -68 80 -148 6
-22 18 -53 25 -70 43 -98 64 -155 70 -195 3 -25 10 -58 15 -75 5 -16 14 -61
20 -98 14 -80 4 -100 -57 -112 -20 -4 -55 -15 -77 -26 -23 -10 -62 -23 -88
-29 -27 -5 -69 -15 -95 -21 -27 -6 -70 -13 -98 -14 -27 -2 -97 -9 -155 -15
-58 -7 -141 -13 -185 -13 -129 0 -343 11 -354 17 -8 5 -150 15 -293 20 -26 1
-50 5 -54 9 -12 11 -51 8 -62 -5 -5 -7 -15 -32 -21 -54 -6 -23 -18 -47 -26
-54 -8 -7 -15 -19 -15 -27 0 -27 -143 -193 -166 -193 -7 0 -19 -10 -25 -22
-16 -31 -80 -87 -100 -88 -8 0 -25 -11 -37 -25 -12 -14 -28 -25 -36 -25 -8 0
-27 -10 -43 -23 -15 -12 -55 -33 -88 -46 -33 -13 -69 -32 -81 -42 -12 -11 -35
-19 -56 -19 -21 0 -46 -9 -62 -21 -15 -12 -48 -24 -72 -27 -24 -2 -47 -9 -50
-13 -3 -5 -20 -9 -39 -9 -19 0 -37 -5 -40 -10 -4 -6 -30 -10 -58 -10 -29 1
-108 1 -176 1 -83 -1 -137 3 -165 13 -22 7 -74 24 -114 36 -40 12 -75 26 -78
31 -3 5 -15 9 -27 9 -13 0 -38 13 -57 30 -19 16 -39 29 -44 30 -17 0 -111 65
-146 100 -41 42 -100 115 -100 125 0 4 -8 19 -19 33 -10 15 -21 44 -24 66 -3
21 -12 46 -20 55 -19 22 -37 90 -37 139 0 23 -13 74 -29 114 -15 40 -31 87
-35 103 -4 17 -18 47 -32 67 -13 21 -24 47 -24 59 0 12 -16 51 -35 86 -19 35
-35 73 -35 84 0 12 -6 33 -14 47 -8 15 -26 59 -41 97 -15 39 -33 74 -41 78 -8
4 -14 19 -14 33 0 14 -9 44 -20 66 -11 23 -20 46 -20 51 0 5 -9 20 -20 34 -11
14 -20 34 -20 44 0 10 -9 24 -20 31 -11 7 -20 20 -20 29 0 9 -8 27 -19 40 -10
13 -24 42 -31 64 -7 22 -21 53 -31 70 -11 16 -19 36 -19 43 0 7 -11 30 -25 52
-14 21 -29 58 -34 81 -5 23 -14 46 -20 52 -6 6 -11 18 -11 27 0 9 -9 35 -20
58 -11 22 -20 47 -20 53 0 7 -7 20 -16 30 -9 10 -18 35 -20 56 -5 59 -15 103
-25 109 -5 3 -9 14 -9 25 0 25 37 25 115 -2z"/>
<path d="M16758 18425 c-7 -7 -96 -13 -293 -20 -55 -2 -122 -6 -150 -9 -27 -3
-68 -5 -91 -5 -23 0 -46 -6 -53 -15 -8 -10 -32 -14 -72 -15 -32 0 -65 -3 -72
-8 -24 -15 -113 -42 -160 -49 -26 -4 -50 -11 -53 -15 -3 -5 -16 -9 -29 -9 -14
0 -39 -9 -57 -20 -18 -11 -44 -20 -56 -20 -13 0 -36 -9 -51 -19 -14 -11 -50
-27 -79 -36 -29 -10 -55 -21 -58 -26 -3 -5 -13 -9 -23 -9 -10 0 -24 -7 -31
-15 -7 -8 -25 -15 -41 -15 -16 0 -33 -8 -41 -19 -8 -11 -27 -23 -43 -27 -17
-4 -41 -15 -54 -26 -13 -10 -29 -18 -35 -18 -26 0 -177 -87 -191 -110 -3 -5
-13 -10 -21 -10 -9 0 -30 -11 -47 -24 -18 -13 -48 -31 -67 -39 -20 -8 -44 -26
-53 -41 -10 -14 -24 -26 -33 -26 -23 0 -107 -48 -129 -75 -11 -13 -37 -31 -57
-40 -21 -8 -38 -20 -38 -25 0 -5 -20 -21 -45 -36 -25 -14 -45 -29 -45 -34 0
-12 -107 -90 -124 -90 -8 0 -21 -8 -28 -17 -17 -23 -74 -63 -89 -63 -13 0 -18
-4 -77 -59 -19 -17 -36 -31 -40 -31 -7 0 -24 -15 -87 -76 -22 -22 -53 -46 -69
-54 -16 -8 -39 -28 -50 -43 -12 -16 -37 -37 -56 -47 -19 -10 -59 -43 -89 -74
-29 -31 -58 -56 -65 -56 -6 0 -35 -21 -63 -47 -161 -148 -196 -179 -212 -184
-9 -4 -23 -14 -30 -23 -7 -9 -19 -16 -26 -16 -7 0 -34 -21 -61 -48 -27 -26
-61 -54 -76 -61 -16 -8 -28 -18 -28 -22 0 -5 -19 -17 -42 -28 -24 -10 -59 -34
-77 -53 -58 -56 -115 -98 -133 -98 -9 0 -30 -12 -45 -26 -15 -14 -44 -34 -63
-45 -19 -10 -48 -32 -64 -49 -16 -16 -37 -30 -47 -30 -10 0 -28 -13 -40 -30
-12 -16 -40 -36 -61 -45 -64 -25 -235 -142 -263 -179 -15 -20 -39 -37 -56 -41
-16 -4 -31 -11 -35 -16 -3 -5 -34 -23 -70 -40 -35 -17 -72 -40 -81 -53 -10
-12 -31 -26 -46 -30 -15 -3 -36 -15 -47 -26 -11 -11 -26 -20 -34 -20 -8 0 -21
-6 -29 -14 -7 -8 -38 -24 -68 -37 -30 -13 -68 -33 -85 -46 -17 -13 -40 -23
-52 -23 -38 0 -73 -90 -52 -131 14 -25 46 -24 101 3 25 12 66 22 94 23 28 1
70 9 95 17 25 9 90 21 144 28 54 6 108 15 120 20 63 23 105 33 155 35 31 1 70
8 86 15 17 7 36 12 43 11 7 -1 25 4 40 12 15 8 54 21 87 29 33 9 85 25 115 37
30 11 81 26 115 32 33 7 68 18 77 27 10 8 27 12 38 9 12 -3 38 2 58 10 20 9
57 20 82 24 58 9 161 37 225 60 28 9 82 23 120 29 39 7 79 16 90 20 66 24 126
40 149 40 14 0 40 6 58 14 18 8 60 22 93 31 33 9 74 23 90 30 17 8 70 25 118
39 48 14 111 38 140 54 52 30 201 82 233 82 10 0 27 8 38 19 12 10 47 26 80
36 32 9 75 25 95 36 19 10 44 19 54 19 11 0 32 11 48 25 16 13 46 27 67 30 20
4 51 13 67 20 17 8 59 25 95 38 36 14 86 36 112 50 26 14 65 28 87 32 22 3 47
15 57 26 9 10 24 19 33 19 9 0 34 9 56 20 22 11 44 20 51 20 6 0 18 7 25 17 8
9 29 22 47 30 17 7 57 29 87 48 30 19 61 35 69 35 8 0 31 14 49 30 19 17 42
30 51 30 9 0 21 9 28 20 7 11 17 20 23 20 5 0 39 21 75 46 36 25 80 54 98 66
18 11 37 28 42 38 5 10 29 27 52 38 24 11 68 42 98 69 30 27 63 52 73 56 9 4
22 17 28 31 6 13 22 27 34 30 13 3 38 24 55 46 17 22 37 40 44 40 7 0 25 14
41 30 16 17 32 30 36 30 4 0 47 41 96 91 48 51 95 98 103 105 40 37 188 186
208 211 12 15 45 55 72 87 28 33 50 62 50 66 0 4 16 24 35 44 19 21 35 47 35
59 0 13 9 30 20 39 11 10 25 38 31 62 6 25 17 47 24 50 18 7 57 92 53 117 -4
30 -51 56 -118 64 -32 4 -64 15 -76 27 -17 15 -35 19 -80 18 -67 -1 -129 4
-159 14 -11 4 -23 4 -27 1z"/>
<path d="M9717 13573 c-4 -3 -37 -8 -74 -10 -77 -4 -117 -21 -214 -95 -67 -50
-96 -96 -113 -175 -6 -27 -3 -37 18 -58 31 -30 40 -31 67 -4 15 15 19 29 16
47 -9 49 44 126 94 137 16 4 31 11 35 16 12 20 145 59 175 51 3 0 26 -2 50 -3
60 -2 162 -20 174 -30 14 -13 59 -11 79 4 26 19 16 50 -24 69 -37 18 -212 58
-253 58 -13 0 -27 -3 -30 -7z"/>
<path d="M7165 13190 c-4 -6 -17 -10 -30 -10 -13 0 -26 -4 -29 -9 -3 -5 -27
-19 -52 -31 -129 -60 -205 -177 -129 -196 35 -9 47 -2 70 41 15 28 30 42 60
52 22 7 43 20 48 28 4 8 20 15 35 15 16 0 32 4 38 9 13 13 134 25 134 14 0 -5
21 -20 48 -33 26 -13 61 -34 78 -47 17 -13 38 -23 47 -23 17 0 37 29 37 54 0
16 -93 96 -145 123 -34 18 -201 28 -210 13z"/>
<path d="M9725 12527 c-49 -10 -94 -22 -99 -28 -6 -5 -17 -9 -25 -9 -16 -1
-148 -126 -212 -202 -40 -47 -69 -99 -69 -121 0 -8 -7 -28 -15 -43 -8 -16 -15
-37 -15 -47 0 -9 -4 -25 -10 -35 -26 -48 -39 -152 -36 -297 2 -134 4 -154 24
-188 12 -21 22 -43 22 -50 0 -22 52 -64 110 -88 50 -22 69 -24 195 -23 119 1
153 5 230 27 50 15 102 26 117 27 15 0 30 5 33 10 3 6 19 10 34 10 15 0 31 4
37 9 5 4 32 14 59 20 53 14 68 19 128 45 21 9 50 16 65 16 16 0 32 4 38 9 5 5
37 19 71 31 35 12 68 29 74 36 6 8 18 14 25 14 16 0 82 63 107 102 28 45 21
155 -14 229 -34 70 -34 69 -10 69 11 0 22 4 25 9 3 4 19 11 36 14 36 8 80 35
80 51 0 6 18 24 40 40 69 51 63 124 -9 110 -22 -5 -36 -15 -44 -33 -16 -35
-29 -45 -116 -86 l-74 -35 -16 22 c-9 12 -28 44 -44 70 -26 46 -27 48 -7 48
27 0 120 49 120 64 0 6 18 27 40 46 44 39 50 64 20 80 -29 16 -57 4 -120 -50
-30 -27 -73 -54 -96 -60 l-41 -12 -48 46 c-27 25 -54 46 -60 46 -6 0 -24 14
-40 30 -17 18 -50 36 -79 45 -28 7 -76 21 -107 30 -31 9 -74 16 -95 15 -21 0
-61 1 -89 2 -27 2 -90 -5 -140 -15z m340 -108 c5 -5 26 -9 46 -9 24 0 39 -5
43 -15 3 -8 12 -15 19 -15 8 0 21 -7 28 -16 7 -9 21 -19 30 -23 18 -7 118
-119 152 -171 49 -73 87 -142 93 -166 3 -13 10 -24 15 -24 15 0 39 -45 47 -92
15 -77 -15 -126 -103 -169 -22 -11 -47 -23 -55 -28 -63 -34 -58 -36 -65 37 -6
74 -36 143 -75 174 -20 16 -36 19 -77 16 -29 -3 -53 -3 -53 -2 0 2 18 31 40
65 32 50 40 71 40 109 0 25 -7 55 -15 66 -8 10 -15 27 -15 37 0 26 -30 78 -57
100 -13 10 -23 23 -23 28 0 19 -65 92 -95 106 -29 13 -29 14 20 8 28 -4 54
-11 60 -16z m-237 -316 c79 -49 103 -94 100 -191 -1 -48 -6 -70 -20 -84 -10
-10 -18 -26 -18 -37 0 -10 -8 -29 -19 -42 -10 -13 -21 -34 -25 -45 -4 -12 -33
-47 -66 -79 l-60 -57 -78 7 c-87 8 -111 19 -140 67 -12 18 -35 43 -51 56 -17
12 -31 28 -31 34 0 6 -14 34 -31 61 -26 42 -32 65 -36 128 l-6 78 34 21 c28
17 44 20 88 15 59 -6 89 -25 139 -87 l32 -41 0 30 c0 17 9 38 20 48 11 10 20
25 20 34 0 24 28 60 64 82 38 23 49 24 84 2z"/>
<path d="M11605 11897 c-33 -4 -69 -12 -80 -17 -11 -5 -40 -12 -65 -15 -65 -9
-143 -26 -155 -35 -5 -4 -27 -10 -48 -14 -20 -4 -59 -18 -85 -30 -26 -13 -67
-27 -92 -31 -25 -4 -59 -18 -77 -31 -17 -13 -43 -24 -56 -24 -14 0 -30 -7 -37
-15 -7 -8 -20 -15 -29 -15 -9 0 -21 -4 -27 -9 -5 -5 -60 -36 -122 -68 -163
-84 -163 -83 -169 -99 -3 -8 -23 -24 -44 -34 -21 -11 -42 -26 -46 -32 -4 -7
-28 -31 -53 -53 -73 -64 -89 -112 -45 -141 28 -19 65 -11 65 15 0 27 200 201
232 201 9 0 29 10 45 23 15 13 35 27 43 30 8 4 33 19 55 32 43 27 99 55 112
55 11 0 111 42 150 63 18 9 39 17 48 17 10 0 29 6 43 14 15 8 47 20 72 26 25
7 72 21 105 31 126 37 243 62 325 69 117 10 160 25 160 55 0 14 -8 29 -19 34
-21 12 -114 11 -206 -2z"/>
<path d="M11685 11402 c-1 -2 -45 -8 -96 -13 -252 -27 -353 -41 -363 -50 -6
-5 -20 -9 -32 -9 -13 0 -26 -4 -29 -10 -3 -5 -17 -10 -30 -10 -13 0 -27 -4
-30 -10 -3 -5 -21 -10 -40 -10 -19 0 -37 -4 -40 -10 -3 -5 -13 -10 -22 -10
-20 0 -239 -106 -248 -120 -3 -5 -15 -10 -25 -10 -19 0 -38 -15 -120 -92 -41
-39 -51 -73 -28 -96 21 -21 44 -13 81 28 19 22 42 40 50 40 8 0 20 7 27 15 7
9 29 23 49 32 20 9 47 25 60 35 13 10 31 18 41 18 10 0 29 9 43 20 13 11 51
26 82 35 32 8 62 19 69 24 15 12 215 63 245 62 12 -1 28 2 33 5 6 4 27 8 47 9
20 2 90 9 156 18 172 21 321 26 468 14 87 -7 127 3 127 32 0 27 -16 36 -91 55
-51 12 -105 16 -224 14 -86 -2 -158 -4 -160 -6z"/>
<path d="M8150 11279 c-14 -5 -44 -14 -67 -19 -22 -6 -56 -24 -73 -40 -18 -17
-37 -30 -43 -30 -6 0 -32 -22 -57 -48 -44 -46 -47 -53 -53 -116 -6 -59 -3 -74
16 -111 23 -43 76 -105 89 -105 4 0 18 -11 32 -25 14 -14 34 -25 45 -25 11 0
23 -5 26 -11 4 -5 17 -14 28 -20 12 -5 29 -13 37 -18 25 -15 103 -30 189 -37
66 -6 84 -4 99 9 9 8 37 26 62 39 26 14 65 49 96 87 43 54 54 77 67 135 24
110 21 163 -12 221 -26 47 -41 59 -101 83 -14 5 -38 15 -55 22 -36 15 -289 22
-325 9z"/>
<path d="M14145 4520 c-27 -11 -59 -48 -79 -91 -14 -30 -15 -44 -7 -75 16 -56
51 -78 111 -71 69 8 171 77 115 77 -8 0 -15 -4 -15 -8 0 -13 -74 -44 -112 -46
-39 -3 -78 26 -78 58 0 17 7 21 33 22 75 1 137 43 137 91 0 40 -56 64 -105 43z
m66 -20 c10 -6 19 -17 19 -25 0 -17 -59 -63 -80 -62 -8 0 -25 -3 -37 -7 -46
-15 -22 53 30 84 37 23 42 24 68 10z"/>
<path d="M13533 4444 c4 -38 9 -80 12 -94 3 -14 9 -41 13 -60 10 -45 24 -39
40 19 14 46 41 81 63 81 22 0 79 -51 79 -69 0 -19 26 -48 35 -39 11 10 -26 77
-55 102 -54 45 -106 29 -136 -42 -10 -24 -12 -17 -24 66 -15 111 -36 138 -27
36z"/>
<path d="M13889 4467 c-59 -36 -67 -48 -65 -105 2 -40 7 -57 25 -73 28 -27
113 -38 136 -19 24 20 18 30 -11 20 -42 -16 -79 -12 -102 13 -29 31 -29 57 2
57 12 0 38 10 57 23 40 27 47 71 14 93 -17 11 -25 10 -56 -9z m53 -32 c-5 -27
-13 -34 -50 -44 -45 -13 -50 4 -11 40 35 33 66 35 61 4z"/>
<path d="M10255 4470 c-3 -5 -24 -10 -45 -10 -22 0 -55 -10 -77 -22 -49 -28
-126 -104 -146 -143 -8 -17 -24 -39 -36 -49 -12 -11 -21 -25 -21 -31 0 -7 -7
-18 -15 -25 -8 -7 -15 -22 -15 -33 0 -11 -7 -28 -16 -38 -29 -32 -55 -181 -55
-318 -1 -140 27 -308 54 -322 8 -5 18 -24 21 -43 4 -19 16 -45 27 -60 11 -14
29 -47 40 -73 11 -26 29 -66 39 -88 67 -148 64 -134 75 -320 2 -38 7 -122 10
-185 4 -63 16 -148 26 -188 20 -74 70 -162 92 -162 7 0 33 -20 59 -44 37 -35
58 -46 94 -52 80 -12 230 35 241 76 3 12 14 20 27 20 13 0 40 20 69 53 59 63
147 185 147 202 0 7 11 33 25 60 14 26 28 68 32 94 3 25 12 55 19 66 8 11 14
41 14 68 0 26 6 60 14 76 8 15 18 67 21 117 4 49 11 134 15 189 5 55 6 116 4
135 -3 19 -7 76 -9 125 -5 119 -46 288 -96 391 -16 34 -29 68 -29 77 0 9 -13
31 -29 49 -16 18 -39 53 -52 78 -22 43 -75 105 -165 195 -57 57 -179 116 -224
109 -28 -5 -39 -1 -54 15 -20 22 -70 29 -81 11z"/>
<path d="M12684 4398 c4 -35 10 -76 13 -93 5 -25 4 -28 -8 -18 -54 44 -125 6
-121 -65 4 -49 26 -72 73 -72 86 0 118 33 94 99 -8 23 -20 80 -26 126 -14 99
-35 118 -25 23z m7 -147 c36 -36 37 -58 3 -71 -73 -28 -127 18 -94 81 16 28
57 24 91 -10z"/>
<path d="M12233 4398 c-36 -9 -74 -54 -92 -107 -30 -91 10 -195 94 -239 56
-29 224 -12 212 22 -2 6 2 25 10 43 18 44 16 89 -5 143 -27 69 -38 84 -79 113
-43 29 -92 38 -140 25z m117 -35 c38 -22 64 -59 84 -117 26 -77 17 -125 -33
-170 -32 -29 -120 -26 -169 7 -159 105 -45 377 118 280z"/>
<path d="M12259 4268 c-25 -46 -29 -90 -11 -120 27 -46 64 -27 87 46 5 18 6
18 28 -3 26 -23 37 -27 37 -10 0 10 -13 27 -67 85 -28 30 -59 31 -74 2z m48
-9 c15 -15 5 -79 -15 -102 -12 -13 -17 -15 -24 -5 -11 19 -10 63 4 93 12 28
19 30 35 14z"/>
<path d="M13165 4353 c-9 -69 -34 -153 -45 -153 -13 0 -56 48 -92 103 -17 26
-37 47 -45 47 -15 0 -4 -21 47 -90 84 -114 121 -110 145 15 15 78 17 125 7
125 -6 0 -14 -21 -17 -47z"/>
<path d="M12850 4362 c-30 -31 -46 -86 -36 -125 10 -41 54 -77 95 -77 37 1 71
19 71 39 0 15 -8 14 -26 -3 -19 -19 -73 -10 -101 17 -33 30 -29 47 10 47 60 0
112 81 75 118 -20 20 -58 13 -88 -16z m78 -13 c5 -24 -37 -69 -64 -69 -40 0
-27 50 21 78 24 14 39 10 43 -9z"/>
<path d="M13408 4250 c-15 -4 -53 -11 -85 -15 -60 -7 -71 -11 -60 -22 13 -12
178 14 195 31 15 15 15 16 -3 15 -11 0 -32 -4 -47 -9z"/>
<path d="M17860 19015 l0 -585 600 0 600 0 0 585 0 585 -600 0 -600 0 0 -585z"/>
<path d="M19110 19015 l0 -585 613 2 612 3 3 583 2 582 -615 0 -615 0 0 -585z"/>
<path d="M20380 19015 l0 -585 50 0 50 0 0 585 0 585 -50 0 -50 0 0 -585z"/>
<path d="M1453 18382 l-43 -3 0 -610 0 -609 615 0 615 0 0 615 0 615 -572 -2
c-315 -1 -592 -4 -615 -6z"/>
<path d="M2690 17777 l0 -617 595 0 595 0 0 610 0 610 -297 0 c-164 0 -432 3
-595 7 l-298 6 0 -616z"/>
<path d="M19278 18382 l-168 -2 0 -610 0 -610 613 2 612 3 0 610 0 610 -445 0
c-245 0 -520 -1 -612 -3z"/>
<path d="M20380 17775 l0 -615 50 0 50 0 0 615 0 615 -50 0 -50 0 0 -615z"/>
<path d="M0 17770 l0 -610 60 0 60 0 0 610 0 610 -60 0 -60 0 0 -610z"/>
<path d="M170 17770 l0 -610 595 0 595 0 0 610 0 610 -595 0 -595 0 0 -610z"/>
<path d="M3930 17770 l0 -610 615 0 615 0 0 610 0 610 -615 0 -615 0 0 -610z"/>
<path d="M5210 17770 l0 -610 595 0 595 0 0 610 0 610 -595 0 -595 0 0 -610z"/>
<path d="M6450 17770 l0 -610 615 0 615 0 0 610 0 610 -615 0 -615 0 0 -610z"/>
<path d="M17860 17770 l0 -610 600 0 600 0 0 610 0 610 -600 0 -600 0 0 -610z"/>
<path d="M0 16480 l0 -630 60 0 60 0 0 630 0 630 -60 0 -60 0 0 -630z"/>
<path d="M170 16480 l0 -630 595 0 595 0 0 630 0 630 -595 0 -595 0 0 -630z"/>
<path d="M1410 16480 l0 -630 615 0 615 0 0 630 0 630 -615 0 -615 0 0 -630z"/>
<path d="M2690 16480 l0 -630 595 0 595 0 0 630 0 630 -595 0 -595 0 0 -630z"/>
<path d="M3930 16480 l0 -630 615 0 615 0 0 630 0 630 -615 0 -615 0 0 -630z"/>
<path d="M5210 16480 l0 -630 600 0 600 0 -2 443 c-1 243 -4 526 -6 630 l-3
187 -594 0 -595 0 0 -630z"/>
<path d="M6450 16480 l0 -630 615 0 615 0 0 630 0 630 -615 0 -615 0 0 -630z"/>
<path d="M17860 16480 l0 -630 600 0 600 0 0 630 0 630 -600 0 -600 0 0 -630z"/>
<path d="M19110 16480 l0 -630 615 0 615 0 0 608 c0 334 -3 617 -6 630 l-6 22
-609 0 -609 0 0 -630z"/>
<path d="M20380 16480 l0 -630 50 0 50 0 0 630 0 630 -50 0 -50 0 0 -630z"/>
<path d="M0 15225 l0 -585 60 0 60 0 0 585 0 585 -60 0 -60 0 0 -585z"/>
<path d="M170 15225 l0 -585 600 0 601 0 -3 403 c-1 221 -4 484 -6 585 l-3
182 -594 0 -595 0 0 -585z"/>
<path d="M1410 15225 l0 -585 615 0 615 0 0 585 0 585 -615 0 -615 0 0 -585z"/>
<path d="M2690 15225 l0 -585 598 0 597 0 -1 33 c-1 17 -2 281 -2 585 l-2 552
-595 0 -595 0 0 -585z"/>
<path d="M3930 15225 l0 -585 615 0 615 0 0 585 0 585 -615 0 -615 0 0 -585z"/>
<path d="M5210 15225 l0 -585 593 0 594 0 6 407 c4 223 7 487 7 585 l0 178
-600 0 -600 0 0 -585z"/>
<path d="M15340 15225 l0 -585 600 0 600 0 0 585 0 585 -600 0 -600 0 0 -585z"/>
<path d="M16590 15225 l0 -585 615 0 615 0 0 585 0 585 -615 0 -615 0 0 -585z"/>
<path d="M17860 15225 l0 -585 600 0 600 0 0 585 0 585 -600 0 -600 0 0 -585z"/>
<path d="M19110 15225 l0 -585 609 0 610 0 3 203 c2 111 5 374 6 585 l3 382
-616 0 -615 0 0 -585z"/>
<path d="M20380 15225 l0 -585 50 0 50 0 0 585 0 585 -50 0 -50 0 0 -585z"/>
<path d="M0 13975 l0 -615 60 0 60 0 0 615 0 615 -60 0 -60 0 0 -615z"/>
<path d="M170 13975 l0 -615 595 0 595 0 0 323 c0 177 3 454 7 615 l6 292
-601 0 -602 0 0 -615z"/>
<path d="M1410 13975 l0 -615 615 0 615 0 0 615 0 615 -615 0 -615 0 0 -615z"/>
<path d="M2688 14453 c-2 -76 -5 -353 -6 -615 l-2 -478 605 0 605 0 0 615 0
615 -599 0 -600 0 -3 -137z"/>
<path d="M3930 13975 l0 -615 615 0 615 0 0 615 0 615 -615 0 -615 0 0 -615z"/>
<path d="M14070 13975 l0 -615 615 0 615 0 0 615 0 615 -615 0 -615 0 0 -615z"/>
<path d="M15342 13978 l3 -613 598 -3 597 -2 0 615 0 615 -600 0 -600 0 2
-612z"/>
<path d="M16590 13975 l0 -615 613 2 612 3 3 613 2 612 -615 0 -615 0 0 -615z"/>
<path d="M17860 13975 l0 -615 600 0 600 0 0 615 0 615 -600 0 -600 0 0 -615z"/>
<path d="M19110 13975 l0 -615 610 0 610 0 0 615 0 615 -610 0 -610 0 0 -615z"/>
<path d="M20380 13975 l0 -615 50 0 50 0 0 615 0 615 -50 0 -50 0 0 -615z"/>
<path d="M0 12690 l0 -630 60 0 60 0 0 630 0 630 -60 0 -60 0 0 -630z"/>
<path d="M167 13123 c-4 -108 -7 -391 -7 -630 l0 -433 606 0 606 0 -6 123 c-3
67 -5 350 -6 630 l0 507 -593 0 -594 0 -6 -197z"/>
<path d="M1410 12690 l0 -630 615 0 615 0 0 630 0 630 -615 0 -615 0 0 -630z"/>
<path d="M2682 12818 c1 -277 4 -560 6 -630 l3 -128 595 0 594 0 0 408 c0 224
3 507 7 630 l6 222 -607 0 -607 0 3 -502z"/>
<path d="M3930 12690 l0 -630 615 0 615 0 0 630 0 630 -615 0 -615 0 0 -630z"/>
<path d="M15347 13313 c-4 -3 -7 -287 -7 -630 l0 -623 600 0 600 0 0 630 0
630 -593 0 c-327 0 -597 -3 -600 -7z"/>
<path d="M16590 12689 l0 -629 615 0 615 0 0 625 0 625 -567 1 c-313 1 -589 3
-615 4 l-48 2 0 -628z"/>
<path d="M17883 13313 l-23 -4 0 -625 0 -624 600 0 600 0 0 630 0 630 -577 -1
c-318 -1 -588 -4 -600 -6z"/>
<path d="M19110 12690 l0 -630 615 0 615 0 -1 578 c-1 317 -4 601 -6 630 l-5
52 -609 0 -609 0 0 -630z"/>
<path d="M20380 12690 l0 -630 50 0 50 0 0 630 0 630 -50 0 -50 0 0 -630z"/>
<path d="M0 11430 l0 -590 60 0 60 0 0 590 0 590 -60 0 -60 0 0 -590z"/>
<path d="M160 11430 l0 -590 603 2 602 3 3 582 2 582 -207 3 c-115 2 -387 5
-605 6 l-398 2 0 -590z"/>
<path d="M1410 11425 l0 -585 613 2 612 3 3 583 2 582 -615 0 -615 0 0 -585z"/>
<path d="M2690 11428 l0 -583 595 -2 595 -2 0 585 0 584 -595 0 -595 0 0 -582z"/>
<path d="M3930 11425 l0 -585 615 0 615 0 0 585 0 585 -615 0 -615 0 0 -585z"/>
<path d="M15340 11425 l0 -585 600 0 600 0 0 585 0 585 -600 0 -600 0 0 -585z"/>
<path d="M16590 11425 l0 -585 615 0 615 0 0 585 0 585 -615 0 -615 0 0 -585z"/>
<path d="M17860 11425 l0 -585 600 0 600 0 0 585 0 585 -600 0 -600 0 0 -585z"/>
<path d="M19110 11425 l0 -586 408 3 c224 1 500 4 615 6 l207 3 0 580 0 579
-615 0 -615 0 0 -585z"/>
<path d="M20380 11430 l0 -580 50 0 50 0 0 580 0 580 -50 0 -50 0 0 -580z"/>
<path d="M0 10185 l0 -615 60 0 60 0 0 615 0 615 -60 0 -60 0 0 -615z"/>
<path d="M160 10185 l0 -615 600 0 600 0 2 605 c2 333 2 610 0 615 -3 7 -213
10 -603 10 l-599 0 0 -615z"/>
<path d="M1410 10185 l0 -615 615 0 615 0 0 615 0 615 -615 0 -615 0 0 -615z"/>
<path d="M2690 10185 l0 -615 595 0 595 0 0 615 0 615 -595 0 -595 0 0 -615z"/>
<path d="M3930 10185 l0 -615 615 0 615 0 0 615 0 615 -615 0 -615 0 0 -615z"/>
<path d="M16590 10185 l0 -615 615 0 615 0 0 615 0 615 -615 0 -615 0 0 -615z"/>
<path d="M17860 10185 l0 -615 600 0 600 0 0 615 0 615 -600 0 -600 0 0 -615z"/>
<path d="M19110 10185 l0 -615 615 0 615 0 -2 613 -3 612 -612 3 -613 2 0
-615z"/>
<path d="M20380 10185 l0 -615 50 0 50 0 0 615 0 615 -50 0 -50 0 0 -615z"/>
<path d="M0 8895 l0 -625 60 0 60 0 0 625 0 625 -60 0 -60 0 0 -625z"/>
<path d="M163 9168 c4 -194 7 -476 7 -625 l0 -273 595 0 595 0 0 625 0 625
-602 0 -601 0 6 -352z"/>
<path d="M1410 8895 l0 -625 615 0 615 0 0 625 0 625 -615 0 -615 0 0 -625z"/>
<path d="M16590 8895 l0 -625 615 0 615 0 0 625 0 625 -615 0 -615 0 0 -625z"/>
<path d="M17860 8896 l0 -624 83 -4 c45 -2 315 -5 600 -6 l517 -3 0 631 0 630
-600 0 -600 0 0 -624z"/>
<path d="M19110 8890 l0 -630 615 0 615 0 0 630 0 630 -615 0 -615 0 0 -630z"/>
<path d="M20380 8890 l0 -630 50 0 50 0 0 630 0 630 -50 0 -50 0 0 -630z"/>
<path d="M0 7635 l0 -585 60 0 60 0 0 585 0 585 -60 0 -60 0 0 -585z"/>
<path d="M170 7635 l0 -585 595 0 595 0 0 585 0 585 -595 0 -595 0 0 -585z"/>
<path d="M1410 7635 l0 -585 615 0 615 0 0 585 0 585 -615 0 -615 0 0 -585z"/>
<path d="M16590 7635 l0 -585 615 0 615 0 0 585 0 585 -615 0 -615 0 0 -585z"/>
<path d="M17860 7635 l0 -585 600 0 600 0 0 585 0 585 -600 0 -600 0 0 -585z"/>
<path d="M19110 7635 l0 -585 615 0 615 0 0 585 0 585 -615 0 -615 0 0 -585z"/>
<path d="M20380 7635 l0 -585 50 0 50 0 0 585 0 585 -50 0 -50 0 0 -585z"/>
<path d="M0 6390 l0 -610 60 0 60 0 0 610 0 610 -60 0 -60 0 0 -610z"/>
<path d="M170 6390 l0 -610 493 0 c270 -1 538 -3 595 -6 l102 -6 0 616 0 616
-595 0 -595 0 0 -610z"/>
<path d="M1410 6385 l0 -615 615 0 615 0 0 615 0 615 -615 0 -615 0 0 -615z"/>
<path d="M17860 6390 l0 -610 600 0 600 0 0 610 0 610 -600 0 -600 0 0 -610z"/>
<path d="M19110 6390 l0 -610 538 -1 c295 -1 571 -2 612 -3 l75 -1 3 613 2
612 -615 0 -615 0 0 -610z"/>
<path d="M20382 6388 l3 -613 48 -3 47 -3 0 615 0 616 -50 0 -50 0 2 -612z"/>
<path d="M0 5100 l0 -630 60 0 60 0 0 630 0 630 -60 0 -60 0 0 -630z"/>
<path d="M170 5100 l0 -630 595 0 595 0 0 630 0 630 -595 0 -595 0 0 -630z"/>
<path d="M1410 5100 l0 -630 615 0 615 0 0 630 0 630 -615 0 -615 0 0 -630z"/>
<path d="M17860 5100 l0 -630 600 0 600 0 0 630 0 630 -600 0 -600 0 0 -630z"/>
<path d="M19110 5100 l0 -630 615 0 615 0 0 630 0 630 -615 0 -615 0 0 -630z"/>
<path d="M20380 5100 l0 -630 50 0 50 0 0 630 0 630 -50 0 -50 0 0 -630z"/>
<path d="M0 3835 l0 -585 60 0 60 0 0 585 0 585 -60 0 -60 0 0 -585z"/>
<path d="M170 3835 l0 -585 595 0 595 0 0 585 0 585 -595 0 -595 0 0 -585z"/>
<path d="M1410 3834 l0 -587 118 6 c64 4 341 7 615 7 l497 0 0 580 0 580 -615
0 -615 0 0 -586z"/>
<path d="M2690 3840 l0 -580 595 0 595 0 0 580 0 580 -595 0 -595 0 0 -580z"/>
<path d="M16590 3840 l0 -580 615 0 615 0 0 580 0 580 -615 0 -615 0 0 -580z"/>
<path d="M17860 3840 l0 -580 600 0 600 0 0 580 0 580 -600 0 -600 0 0 -580z"/>
<path d="M19110 3840 l0 -580 615 0 615 0 0 580 0 580 -615 0 -615 0 0 -580z"/>
<path d="M20380 3840 l0 -580 50 0 50 0 0 580 0 580 -50 0 -50 0 0 -580z"/>
<path d="M0 2595 l0 -615 60 0 60 0 0 615 0 615 -60 0 -60 0 0 -615z"/>
<path d="M170 2595 l0 -615 595 0 595 0 0 615 0 615 -595 0 -595 0 0 -615z"/>
<path d="M1410 2595 l0 -615 615 0 615 0 0 615 0 615 -615 0 -615 0 0 -615z"/>
<path d="M2690 2595 l0 -615 595 0 595 0 0 615 0 615 -595 0 -595 0 0 -615z"/>
<path d="M3930 2595 l0 -615 615 0 615 0 0 615 0 615 -615 0 -615 0 0 -615z"/>
<path d="M15340 2595 l0 -615 600 0 600 0 0 615 0 615 -600 0 -600 0 0 -615z"/>
<path d="M16590 2595 l0 -615 615 0 615 0 0 615 0 615 -615 0 -615 0 0 -615z"/>
<path d="M17860 2595 l0 -615 600 0 600 0 0 615 0 615 -600 0 -600 0 0 -615z"/>
<path d="M19110 2595 l0 -615 615 0 615 0 0 615 0 615 -615 0 -615 0 0 -615z"/>
<path d="M20380 2595 l0 -615 50 0 50 0 0 615 0 615 -50 0 -50 0 0 -615z"/>
<path d="M0 1300 l0 -630 60 0 60 0 0 630 0 630 -60 0 -60 0 0 -630z"/>
<path d="M170 1300 l0 -630 595 0 595 0 0 630 0 630 -595 0 -595 0 0 -630z"/>
<path d="M1410 1300 l0 -630 615 0 615 0 0 630 0 630 -615 0 -615 0 0 -630z"/>
<path d="M2688 1503 c-1 -236 -2 -518 -2 -628 l-1 -200 465 0 c256 -1 525 1
598 3 l132 3 0 625 0 624 -595 0 -595 0 -2 -427z"/>
<path d="M3930 1305 l0 -625 615 0 615 0 0 625 0 625 -615 0 -615 0 0 -625z"/>
<path d="M5210 1305 l0 -625 595 0 595 0 0 625 0 625 -595 0 -595 0 0 -625z"/>
<path d="M6450 1305 l0 -625 615 0 615 0 0 625 0 625 -615 0 -615 0 0 -625z"/>
<path d="M7730 1305 l0 -625 625 0 625 0 0 625 0 625 -625 0 -625 0 0 -625z"/>
<path d="M12828 1313 c-2 -340 -1 -624 1 -630 2 -10 130 -13 597 -13 l594 0 0
630 0 630 -595 0 -595 0 -2 -617z"/>
<path d="M14070 1300 l0 -631 463 3 c254 1 531 4 615 6 l152 3 0 625 0 624
-615 0 -615 0 0 -630z"/>
<path d="M15340 1305 l0 -625 600 0 600 0 0 625 0 625 -600 0 -600 0 0 -625z"/>
<path d="M16590 1305 l0 -625 615 0 615 0 0 625 0 625 -615 0 -615 0 0 -625z"/>
<path d="M17860 1305 l0 -625 600 0 600 0 0 625 0 625 -600 0 -600 0 0 -625z"/>
<path d="M19110 1305 l0 -625 615 0 615 0 0 625 0 625 -615 0 -615 0 0 -625z"/>
<path d="M20380 1305 l0 -625 50 0 50 0 0 625 0 625 -50 0 -50 0 0 -625z"/>
<path d="M0 315 l0 -315 60 0 60 0 0 315 0 315 -60 0 -60 0 0 -315z"/>
<path d="M170 315 l0 -315 595 0 595 0 0 315 0 315 -595 0 -595 0 0 -315z"/>
<path d="M1410 315 l0 -315 615 0 615 0 0 315 0 315 -615 0 -615 0 0 -315z"/>
<path d="M2680 315 l0 -315 600 0 600 0 0 315 0 315 -600 0 -600 0 0 -315z"/>
<path d="M3930 315 l0 -315 615 0 615 0 0 315 0 315 -615 0 -615 0 0 -315z"/>
<path d="M5208 518 c-2 -62 -5 -204 -6 -316 l-3 -202 601 0 600 0 0 315 0 315
-594 0 -595 0 -3 -112z"/>
<path d="M6450 315 l0 -315 615 0 615 0 0 315 0 315 -615 0 -615 0 0 -315z"/>
<path d="M7730 315 l0 -315 625 0 625 0 0 315 0 315 -625 0 -625 0 0 -315z"/>
<path d="M9030 315 l0 -315 615 0 615 0 0 315 0 315 -615 0 -615 0 0 -315z"/>
<path d="M10300 315 l0 -315 600 0 600 0 0 315 0 315 -600 0 -600 0 0 -315z"/>
<path d="M11550 315 l0 -315 615 0 615 0 0 315 0 315 -615 0 -615 0 0 -315z"/>
<path d="M12820 315 l0 -315 600 0 600 0 0 315 0 315 -600 0 -600 0 0 -315z"/>
<path d="M14070 315 l0 -315 615 0 615 0 0 315 0 315 -615 0 -615 0 0 -315z"/>
<path d="M15340 315 l0 -315 600 0 600 0 0 315 0 315 -600 0 -600 0 0 -315z"/>
<path d="M16590 315 l0 -315 615 0 615 0 0 315 0 315 -615 0 -615 0 0 -315z"/>
<path d="M17860 315 l0 -315 600 0 600 0 0 315 0 315 -600 0 -600 0 0 -315z"/>
<path d="M19110 315 l0 -315 615 0 615 0 0 315 0 315 -615 0 -615 0 0 -315z"/>
<path d="M20380 315 l0 -315 50 0 50 0 0 315 0 315 -50 0 -50 0 0 -315z"/>
</g>
</svg>
