<?xml version="1.0" standalone="no"?>
<!DOCTYPE svg PUBLIC "-//W3C//DTD SVG 20010904//EN"
 "http://www.w3.org/TR/2001/REC-SVG-20010904/DTD/svg10.dtd">
<svg version="1.0" xmlns="http://www.w3.org/2000/svg"
 width="1997.000000pt" height="1997.000000pt" viewBox="0 0 1997.000000 1997.000000"
 preserveAspectRatio="xMidYMid meet">
<metadata>
Created by potrace 1.14, written by Peter Selinger 2001-2017
</metadata>
<g transform="translate(0.000000,1997.000000) scale(0.100000,-0.100000)"
fill="#000000" stroke="none">
<path d="M9568 19965 c-2 -2 -68 -6 -148 -10 -80 -3 -158 -8 -175 -10 -16 -2
-70 -7 -119 -10 -49 -4 -96 -8 -105 -10 -9 -1 -52 -6 -95 -10 -43 -4 -86 -8
-95 -10 -9 -1 -43 -6 -76 -9 -80 -10 -135 -17 -240 -32 -32 -4 -309 -51 -415
-69 -14 -3 -79 -16 -145 -31 -66 -14 -131 -28 -145 -30 -108 -21 -673 -169
-730 -191 -8 -4 -18 -7 -22 -8 -5 -2 -9 -3 -10 -4 -2 -2 -12 -4 -23 -6 -38 -8
-440 -143 -490 -166 -11 -4 -47 -18 -80 -30 -33 -11 -73 -27 -90 -34 -16 -7
-48 -20 -70 -28 -56 -20 -280 -113 -340 -142 -27 -13 -77 -35 -110 -50 -93
-41 -109 -49 -117 -60 -4 -5 -8 -7 -8 -2 0 4 -30 -8 -67 -27 -38 -19 -79 -40
-93 -45 -14 -6 -32 -15 -40 -20 -37 -22 -118 -63 -152 -77 -21 -9 -38 -20 -38
-26 0 -5 -4 -7 -9 -4 -5 3 -20 -3 -34 -14 -14 -11 -32 -20 -40 -20 -9 0 -18
-4 -22 -9 -3 -6 -18 -16 -33 -24 -35 -17 -131 -71 -194 -108 -27 -16 -53 -29
-58 -29 -6 0 -10 -4 -10 -8 0 -4 -21 -19 -47 -33 -80 -42 -97 -52 -111 -66 -7
-7 -18 -13 -23 -13 -5 0 -15 -5 -22 -10 -30 -25 -147 -98 -147 -92 0 4 -4 2
-8 -3 -4 -6 -20 -19 -37 -29 -16 -11 -34 -23 -40 -28 -17 -13 -117 -78 -121
-78 -2 0 -15 -10 -30 -22 -14 -13 -27 -22 -30 -20 -2 1 -12 -5 -21 -14 -10 -9
-49 -38 -88 -64 -38 -27 -79 -56 -90 -64 -11 -8 -100 -76 -198 -151 -98 -74
-185 -142 -194 -150 -8 -9 -31 -28 -51 -43 -38 -28 -69 -54 -106 -87 -13 -11
-45 -38 -71 -60 -27 -22 -56 -48 -64 -57 -8 -9 -18 -15 -23 -12 -4 3 -8 -2 -8
-10 0 -9 -4 -16 -10 -16 -5 0 -22 -12 -38 -27 -95 -91 -121 -113 -132 -113 -6
0 -9 -4 -6 -8 2 -4 -10 -19 -27 -32 -17 -14 -128 -122 -247 -240 -186 -187
-264 -268 -415 -436 -16 -18 -45 -49 -62 -68 -18 -20 -33 -38 -33 -40 0 -3
-10 -16 -23 -29 -12 -13 -42 -47 -67 -77 -25 -29 -54 -63 -65 -76 -11 -12 -27
-32 -35 -45 -8 -12 -27 -34 -41 -49 -14 -15 -37 -43 -50 -61 -13 -19 -52 -69
-86 -112 -35 -44 -63 -82 -63 -85 0 -4 -14 -21 -30 -39 -17 -18 -30 -34 -30
-37 0 -7 -64 -95 -85 -117 -8 -9 -15 -19 -15 -23 0 -4 -4 -12 -10 -19 -48 -59
-61 -77 -54 -77 4 0 -3 -9 -16 -20 -13 -11 -19 -20 -14 -20 5 0 4 -4 -2 -8 -6
-4 -32 -41 -59 -82 -27 -41 -51 -77 -55 -80 -4 -3 -10 -12 -13 -20 -4 -8 -16
-28 -27 -45 -11 -16 -25 -40 -31 -52 -7 -13 -16 -23 -20 -23 -4 0 -10 -11 -13
-25 -4 -14 -11 -25 -16 -25 -6 0 -10 -6 -10 -13 0 -7 -9 -23 -20 -35 -12 -12
-19 -22 -16 -22 3 0 -20 -39 -49 -86 -30 -47 -60 -99 -67 -115 -7 -16 -16 -29
-20 -29 -5 0 -8 -6 -8 -14 0 -8 -6 -21 -12 -28 -7 -7 -22 -31 -33 -53 -11 -22
-22 -42 -25 -45 -5 -5 -61 -110 -84 -157 -6 -13 -15 -23 -19 -23 -5 0 -6 -3
-4 -7 3 -5 -10 -35 -29 -68 -18 -33 -40 -73 -48 -90 -7 -16 -48 -100 -89 -185
-41 -86 -85 -180 -98 -210 -12 -30 -27 -58 -32 -61 -5 -3 -8 -9 -8 -13 1 -9
-9 -36 -31 -86 -23 -51 -168 -410 -172 -425 -2 -5 -6 -17 -9 -25 -18 -43 -70
-188 -74 -210 -3 -14 -9 -30 -14 -35 -4 -6 -10 -22 -13 -35 -3 -14 -13 -45
-22 -70 -9 -25 -17 -52 -19 -60 -2 -8 -16 -51 -30 -95 -79 -240 -218 -776
-251 -965 -2 -14 -7 -36 -9 -50 -3 -14 -8 -38 -11 -55 -3 -16 -11 -61 -19
-100 -8 -38 -17 -83 -19 -100 -10 -61 -36 -221 -40 -255 -5 -34 -11 -71 -20
-140 -3 -19 -8 -60 -11 -90 -4 -30 -8 -62 -10 -70 -2 -8 -7 -53 -10 -98 -4
-46 -8 -93 -11 -105 -2 -12 -6 -62 -10 -112 -3 -49 -7 -101 -9 -114 -12 -73
-20 -377 -20 -756 1 -432 6 -565 30 -845 3 -36 8 -90 11 -120 2 -30 6 -71 9
-90 5 -38 11 -88 20 -165 3 -27 8 -66 10 -85 3 -19 7 -51 10 -71 2 -20 11 -76
19 -125 9 -49 18 -107 21 -129 2 -22 10 -65 16 -95 6 -30 13 -68 15 -85 9 -55
12 -69 34 -175 11 -58 30 -141 40 -185 10 -44 21 -91 23 -105 3 -14 25 -104
50 -200 94 -361 204 -710 317 -1005 23 -60 43 -114 44 -120 1 -5 4 -14 8 -20
3 -5 18 -41 33 -80 15 -38 33 -83 41 -100 7 -16 25 -59 40 -95 14 -36 42 -98
60 -138 19 -41 34 -75 34 -77 0 -2 30 -66 67 -142 36 -76 67 -140 68 -143 16
-41 31 -70 36 -70 4 0 10 -14 14 -30 4 -17 11 -30 16 -30 6 0 7 -4 4 -10 -3
-5 -3 -10 2 -10 4 0 24 -34 43 -75 19 -41 38 -75 42 -75 5 0 8 -5 8 -11 0 -6
25 -56 56 -111 31 -55 61 -109 68 -121 33 -64 161 -272 168 -275 4 -2 8 -8 8
-12 0 -12 83 -144 92 -148 5 -2 8 -7 8 -12 0 -16 257 -392 272 -398 5 -2 8 -9
8 -16 0 -7 9 -21 20 -31 11 -10 20 -22 20 -26 0 -5 8 -18 17 -30 39 -46 49
-58 63 -79 8 -12 35 -48 60 -79 25 -31 56 -72 70 -91 14 -18 31 -39 38 -46 6
-7 12 -15 12 -18 0 -3 8 -14 18 -24 9 -10 31 -35 47 -56 17 -22 40 -50 53 -64
12 -14 33 -38 45 -54 12 -16 36 -44 52 -63 17 -18 50 -56 75 -85 25 -29 59
-67 75 -85 17 -18 57 -63 90 -100 83 -93 85 -95 96 -95 5 0 9 -5 9 -10 0 -6
15 -25 33 -43 17 -17 31 -35 30 -39 -2 -4 1 -8 5 -8 12 0 192 -179 192 -190 0
-6 5 -10 10 -10 6 0 35 -24 64 -52 111 -111 196 -188 206 -188 6 0 8 -4 5 -10
-3 -5 -3 -10 2 -10 4 0 26 -16 48 -36 22 -20 58 -52 81 -72 35 -32 75 -66 165
-142 9 -8 37 -31 61 -50 23 -19 53 -45 65 -56 12 -12 24 -19 27 -17 3 3 8 -2
12 -11 3 -9 10 -16 16 -16 5 0 19 -10 32 -22 13 -13 34 -30 46 -38 13 -8 30
-23 39 -32 8 -10 20 -18 25 -18 5 0 17 -10 27 -22 11 -11 19 -17 19 -12 0 5 4
4 8 -2 6 -9 151 -119 237 -180 11 -8 48 -34 83 -59 34 -25 62 -43 62 -40 0 5
29 -17 55 -42 8 -7 18 -13 22 -13 5 0 19 -9 31 -20 12 -12 22 -18 22 -15 0 4
7 0 15 -7 30 -27 44 -38 50 -38 7 0 116 -72 133 -87 7 -7 18 -13 23 -13 5 0
43 -22 85 -50 41 -27 77 -50 80 -50 2 0 23 -12 47 -27 23 -15 60 -37 82 -49
22 -11 64 -35 93 -52 29 -18 57 -32 62 -32 6 0 10 -4 10 -9 0 -5 14 -14 30
-20 17 -5 44 -20 60 -31 17 -12 30 -18 30 -14 0 4 8 0 18 -8 30 -27 566 -287
750 -364 47 -20 98 -42 135 -58 50 -22 316 -126 323 -126 3 0 20 -6 37 -14 86
-39 629 -217 701 -230 14 -3 29 -7 33 -9 5 -3 89 -26 188 -51 99 -25 196 -51
215 -56 38 -11 260 -59 300 -66 14 -2 36 -7 50 -10 48 -11 76 -16 260 -48 47
-8 101 -17 120 -21 41 -7 80 -13 135 -20 22 -3 67 -10 100 -15 33 -5 89 -12
125 -15 36 -3 72 -8 80 -10 8 -2 49 -7 90 -10 41 -4 82 -8 90 -10 8 -2 58 -6
110 -10 52 -4 111 -8 130 -10 217 -20 1055 -28 1295 -12 138 9 237 16 295 22
25 2 74 7 110 10 36 3 81 8 100 10 19 2 60 7 90 10 60 6 120 14 160 20 14 2
61 9 105 15 44 6 91 12 105 14 14 3 59 10 100 16 41 7 84 14 95 16 11 2 34 7
50 9 27 5 366 72 405 80 33 7 335 84 550 139 216 56 920 298 954 328 6 4 16 8
24 8 12 0 44 13 139 56 17 8 34 14 37 14 3 0 29 11 58 24 29 13 76 34 103 46
112 50 163 73 221 101 34 16 65 29 70 29 4 0 15 7 24 15 10 9 27 18 40 20 13
2 31 12 41 21 11 10 19 14 19 9 0 -4 6 -3 13 2 29 23 245 131 251 126 3 -4 6
-2 6 4 0 9 35 30 54 31 5 0 12 4 15 10 6 9 81 53 161 94 25 13 47 26 48 31 2
4 8 7 13 7 8 0 246 143 301 181 15 11 30 19 33 19 3 0 11 5 18 11 11 9 26 19
92 61 28 18 230 155 290 197 28 19 52 38 53 43 2 4 10 8 17 8 7 0 15 3 17 8 2
4 21 19 44 35 22 15 50 36 62 48 12 11 22 16 22 12 0 -4 4 -3 8 3 4 5 47 40
95 77 49 37 95 73 102 80 7 6 23 19 35 27 12 8 28 20 34 25 12 11 110 91 140
115 10 8 29 25 42 38 13 13 24 21 24 18 0 -2 15 10 34 27 69 65 97 87 106 87
6 0 9 4 7 9 -1 5 2 11 8 13 5 1 25 18 43 35 19 18 37 33 41 33 4 0 14 11 21
25 7 14 16 23 18 20 3 -2 20 11 38 30 18 19 35 35 39 35 8 0 474 469 552 556
34 38 86 96 115 129 29 32 63 69 75 82 12 13 20 23 18 23 -2 0 8 13 23 28 15
15 43 47 62 71 19 23 42 52 52 62 9 11 31 39 50 62 18 22 41 49 50 59 10 10
15 18 10 18 -4 0 1 5 11 11 9 5 17 17 17 25 0 8 4 13 9 9 5 -3 12 4 16 15 3
11 10 20 15 20 5 0 11 9 15 19 3 10 21 35 40 55 18 20 31 36 27 36 -3 0 3 7
14 15 10 8 16 15 12 15 -5 0 0 9 10 19 30 34 42 50 42 57 0 4 10 15 22 25 11
11 17 19 13 19 -5 0 1 9 13 20 12 12 22 24 22 28 0 4 14 23 30 42 16 19 30 39
30 43 0 4 4 13 10 20 33 41 60 78 86 119 16 27 32 48 37 48 4 0 7 6 7 13 0 7
8 22 18 33 10 10 21 26 25 34 4 8 34 56 67 105 33 50 65 102 71 118 6 15 14
27 19 27 4 0 13 13 20 30 7 17 17 30 23 30 6 0 7 3 4 6 -3 4 3 18 13 32 11 13
20 31 20 38 0 8 4 14 8 14 5 0 17 18 27 40 10 22 21 40 24 40 4 0 12 12 18 28
10 24 29 59 109 197 56 99 354 701 354 717 0 3 16 41 36 85 19 43 39 87 44 98
93 207 268 694 354 985 25 85 51 169 56 186 16 49 127 494 134 535 3 20 8 42
10 50 3 8 8 25 10 39 3 14 7 36 10 50 6 29 43 220 51 265 16 90 28 163 31 188
2 15 6 39 9 55 8 46 44 314 50 372 3 30 7 65 9 76 2 12 7 59 11 105 8 107 12
161 19 229 15 162 20 336 21 725 0 364 -4 534 -20 765 -4 60 -24 266 -30 315
-2 17 -7 59 -10 95 -4 36 -8 72 -10 80 -1 8 -5 42 -9 75 -14 114 -22 172 -32
220 -3 17 -7 41 -9 55 -3 28 -32 201 -40 240 -3 14 -8 41 -11 60 -3 19 -7 41
-10 49 -2 8 -7 30 -10 50 -3 20 -14 72 -24 116 -11 45 -21 92 -23 105 -3 14
-10 43 -15 65 -6 22 -13 51 -16 65 -10 49 -15 72 -35 144 -11 40 -22 83 -25
97 -5 23 -63 228 -85 297 -5 18 -10 34 -11 37 0 3 -2 10 -5 17 -2 7 -14 45
-25 83 -12 39 -25 81 -30 95 -5 14 -30 86 -55 160 -25 74 -52 151 -60 170 -7
19 -35 91 -61 160 -26 69 -55 143 -65 166 -10 22 -27 63 -37 90 -11 27 -32 75
-46 106 -14 31 -26 59 -26 61 0 3 -21 49 -46 104 -25 54 -60 127 -76 163 -64
138 -210 422 -229 446 -5 6 -7 13 -4 16 3 3 -1 11 -10 18 -8 7 -15 16 -15 20
0 7 -43 83 -145 260 -17 30 -55 92 -83 138 -29 46 -52 88 -52 93 0 5 -4 9 -10
9 -5 0 -10 4 -10 9 0 10 -21 44 -101 164 -22 32 -39 62 -39 66 0 5 -3 11 -8
13 -11 4 -92 126 -92 138 0 5 -4 10 -9 10 -6 0 -20 18 -32 40 -13 22 -26 40
-31 40 -4 0 -8 7 -8 15 0 8 -4 15 -8 15 -4 0 -15 12 -24 28 -9 15 -24 36 -33
47 -8 11 -44 59 -78 106 -35 47 -68 92 -75 100 -7 8 -26 32 -43 54 -48 63 -72
94 -94 118 -11 12 -33 40 -49 62 -16 22 -37 47 -45 56 -9 9 -32 36 -51 59 -19
23 -52 61 -73 84 -20 22 -45 53 -54 69 -10 15 -25 30 -35 33 -10 3 -18 10 -18
15 0 6 -6 16 -12 23 -7 8 -49 53 -93 102 -87 96 -530 544 -538 544 -12 0 -75
69 -69 75 4 4 2 5 -4 3 -6 -2 -38 22 -70 52 -33 30 -62 54 -66 52 -5 -1 -8 5
-8 15 0 9 -2 14 -5 11 -3 -3 -21 9 -40 26 -87 79 -105 95 -105 90 0 -2 -13 9
-30 26 -16 16 -32 30 -35 30 -4 0 -19 12 -35 28 -15 15 -38 34 -50 42 -12 8
-40 32 -63 52 -23 21 -45 38 -48 38 -3 0 -17 9 -30 21 -13 11 -33 28 -44 37
-11 10 -36 28 -55 42 -19 13 -41 30 -49 38 -8 7 -26 21 -40 30 -14 9 -30 20
-36 25 -5 4 -28 21 -50 37 -22 16 -46 34 -52 40 -7 6 -28 20 -48 31 -19 12
-35 25 -35 30 0 5 -5 9 -10 9 -12 0 -73 41 -78 53 -2 4 -10 7 -18 7 -8 0 -14
4 -14 8 0 5 -10 14 -22 19 -13 6 -32 18 -43 27 -11 9 -58 41 -105 71 -47 30
-90 59 -97 65 -7 5 -15 10 -18 10 -3 0 -32 17 -63 38 -31 21 -83 54 -116 73
-32 19 -70 41 -85 50 -14 9 -43 26 -63 38 -21 11 -55 31 -75 43 -54 31 -131
73 -183 100 -25 13 -47 25 -50 28 -10 10 -310 162 -445 225 -55 25 -120 56
-144 68 -25 12 -47 22 -50 23 -3 0 -23 8 -43 17 -21 9 -55 24 -75 33 -35 15
-75 32 -128 55 -63 27 -206 83 -315 123 -69 26 -147 55 -175 65 -262 99 -900
282 -1130 327 -22 4 -44 9 -50 10 -5 2 -66 15 -135 29 -113 24 -175 36 -265
51 -16 3 -68 12 -115 20 -107 19 -234 38 -330 49 -25 3 -54 7 -65 9 -11 2 -54
7 -95 11 -41 4 -84 9 -95 11 -11 2 -54 7 -95 10 -41 3 -91 7 -110 9 -19 2 -78
7 -130 10 -52 4 -115 9 -140 11 -56 6 -996 14 -1002 9z"/>
</g>
</svg>
